<svg xmlns="http://www.w3.org/2000/svg" xmlns:xlink="http://www.w3.org/1999/xlink" width="1000" zoomAndPan="magnify" viewBox="0 0 750 749.999995" height="1000" preserveAspectRatio="xMidYMid meet" version="1.0"><path fill="#98b1bd" d="M 171.78125 348.992188 L 156.183594 349.027344 L 156.140625 333.414062 L 156.105469 322 L 156.105469 317.507812 L 156.070312 304.535156 L 156.070312 301.828125 L 156.03125 288.019531 C 160.851562 289.277344 165.460938 291.070312 169.863281 293.402344 C 174.265625 295.734375 178.339844 298.542969 182.085938 301.828125 C 183.054688 302.675781 184 303.558594 184.925781 304.472656 C 185.949219 305.476562 186.929688 306.511719 187.871094 307.574219 C 190.582031 310.621094 192.976562 313.902344 195.058594 317.414062 C 198.011719 322.402344 200.226562 327.699219 201.699219 333.304688 L 204.140625 333.304688 L 218.023438 333.269531 C 216.863281 327.617188 215.101562 322.160156 212.746094 316.890625 C 210.386719 311.625 207.492188 306.675781 204.050781 302.042969 L 203.894531 301.832031 C 199.316406 295.710938 193.964844 290.355469 187.847656 285.773438 L 187.820312 285.773438 L 187.820312 285.753906 C 184.421875 283.210938 180.84375 280.957031 177.082031 278.992188 C 173.324219 277.027344 169.429688 275.375 165.402344 274.039062 C 161.375 272.699219 157.269531 271.695312 153.078125 271.019531 C 148.890625 270.34375 144.675781 270.011719 140.433594 270.015625 L 140.066406 270.015625 L 140.066406 365.273438 L 156.230469 365.234375 L 167.558594 365.210938 L 171.824219 365.210938 L 185.078125 365.183594 L 188.011719 365.183594 L 201.683594 365.152344 C 200.222656 370.761719 198.019531 376.058594 195.074219 381.050781 C 193.046875 384.484375 190.71875 387.695312 188.085938 390.6875 C 187.070312 391.839844 186.011719 392.960938 184.90625 394.050781 C 183.863281 395.070312 182.804688 396.046875 181.722656 396.988281 C 178.058594 400.160156 174.082031 402.875 169.800781 405.140625 C 165.519531 407.40625 161.035156 409.164062 156.355469 410.410156 L 156.316406 397.050781 L 156.316406 393.898438 L 156.28125 381.140625 L 140.074219 381.179688 L 140.074219 428.488281 L 140.441406 428.488281 C 144.667969 428.496094 148.863281 428.164062 153.035156 427.496094 C 157.207031 426.824219 161.296875 425.824219 165.308594 424.496094 C 169.320312 423.167969 173.199219 421.527344 176.945312 419.574219 C 180.691406 417.621094 184.257812 415.378906 187.644531 412.851562 C 187.816406 412.730469 187.984375 412.601562 188.152344 412.457031 C 194.054688 407.996094 199.234375 402.804688 203.6875 396.894531 L 204.296875 396.078125 C 206.773438 392.703125 208.96875 389.15625 210.878906 385.429688 C 212.792969 381.707031 214.398438 377.855469 215.699219 373.878906 C 217 369.898438 217.976562 365.84375 218.632812 361.707031 C 219.289062 357.574219 219.613281 353.414062 219.609375 349.226562 C 219.609375 349.101562 219.609375 348.976562 219.609375 348.835938 L 204.164062 348.875 L 203.71875 348.875 L 187.980469 348.910156 L 187.828125 348.910156 L 171.933594 348.949219 Z M 171.78125 348.992188 " fill-opacity="1" fill-rule="nonzero"/><path fill="#2e4b74" d="M 124.175781 271.695312 C 118.507812 272.886719 113.035156 274.675781 107.757812 277.070312 C 102.484375 279.464844 97.53125 282.402344 92.902344 285.890625 L 92.414062 286.261719 C 86.558594 290.738281 81.421875 295.933594 77.007812 301.835938 C 76.449219 302.585938 75.910156 303.34375 75.390625 304.109375 C 73.105469 307.402344 71.082031 310.851562 69.320312 314.453125 C 67.558594 318.058594 66.078125 321.773438 64.882812 325.601562 C 63.6875 329.429688 62.789062 333.328125 62.1875 337.292969 C 61.582031 341.257812 61.285156 345.246094 61.289062 349.257812 C 61.285156 354.710938 61.839844 360.109375 62.945312 365.449219 C 64.007812 370.570312 65.566406 375.539062 67.617188 380.347656 C 69.667969 385.160156 72.175781 389.722656 75.132812 394.035156 C 75.875 395.117188 76.644531 396.179688 77.4375 397.222656 C 81.796875 402.964844 86.84375 408.023438 92.578125 412.394531 C 92.890625 412.636719 93.203125 412.871094 93.519531 413.097656 C 96.871094 415.566406 100.394531 417.761719 104.089844 419.675781 C 107.785156 421.589844 111.609375 423.199219 115.5625 424.507812 C 119.511719 425.8125 123.542969 426.800781 127.648438 427.472656 C 131.757812 428.140625 135.894531 428.484375 140.054688 428.496094 L 140.054688 270.015625 C 134.707031 270.042969 129.414062 270.601562 124.175781 271.695312 Z M 124.175781 349.261719 L 124.175781 410.765625 C 119.261719 409.585938 114.554688 407.847656 110.050781 405.546875 C 105.550781 403.25 101.378906 400.453125 97.539062 397.164062 C 96.367188 396.164062 95.230469 395.121094 94.125 394.035156 C 93.59375 393.511719 93.074219 392.984375 92.5625 392.445312 C 89.335938 389.042969 86.519531 385.328125 84.113281 381.300781 C 81.140625 376.320312 78.90625 371.023438 77.417969 365.414062 C 76.011719 360.117188 75.3125 354.730469 75.320312 349.253906 L 75.320312 349.214844 C 75.3125 343.925781 75.964844 338.722656 77.273438 333.601562 C 78.714844 327.984375 80.902344 322.675781 83.832031 317.675781 C 86.261719 313.523438 89.125 309.695312 92.425781 306.191406 C 92.976562 305.609375 93.535156 305.019531 94.109375 304.472656 C 95.03125 303.558594 95.976562 302.675781 96.949219 301.828125 C 100.847656 298.410156 105.097656 295.511719 109.699219 293.125 C 114.300781 290.742188 119.121094 288.945312 124.160156 287.730469 L 124.160156 349.113281 Z M 124.175781 349.261719 " fill-opacity="1" fill-rule="nonzero"/><path fill="#000000" d="M 246.960938 293.75 C 253.5625 292.742188 260.203125 292.253906 266.882812 292.28125 C 279.707031 292.28125 288.441406 294.949219 294.734375 300.1875 C 301.375 305.59375 305.441406 313.746094 305.441406 325.355469 C 305.441406 337.609375 301.261719 346.679688 294.804688 352.570312 C 287.933594 358.730469 277.125 361.894531 263.839844 361.894531 C 258.195312 361.945312 252.570312 361.648438 246.960938 360.996094 Z M 259.4375 351.683594 C 261.1875 351.984375 263.84375 352.019531 266.398438 352.019531 C 282.609375 352.105469 292.25 343.105469 292.25 325.785156 C 292.316406 310.699219 283.65625 302 267.953125 302 C 265.089844 301.957031 262.25 302.199219 259.4375 302.734375 Z M 259.4375 351.683594 " fill-opacity="1" fill-rule="nonzero"/><path fill="#000000" d="M 328.394531 341.878906 L 322.5625 361.214844 L 309.671875 361.214844 L 331.601562 292.8125 L 347.5 292.8125 L 369.707031 361.234375 L 356.285156 361.234375 L 350.101562 341.898438 Z M 348.046875 332.433594 L 342.664062 315.582031 C 341.351562 311.34375 340.222656 306.691406 339.191406 302.726562 L 338.964844 302.726562 C 337.972656 306.734375 336.925781 311.472656 335.71875 315.539062 L 330.441406 332.433594 Z M 348.046875 332.433594 " fill-opacity="1" fill-rule="nonzero"/><path fill="#000000" d="M 379.175781 292.8125 L 391.675781 292.8125 L 391.675781 350.730469 L 419.78125 350.730469 L 419.78125 361.214844 L 379.175781 361.214844 Z M 379.175781 292.8125 " fill-opacity="1" fill-rule="nonzero"/><path fill="#000000" d="M 485.882812 326.316406 C 485.882812 349.21875 472.011719 362.316406 453.179688 362.316406 C 433.878906 362.316406 421.65625 347.558594 421.65625 327.519531 C 421.65625 306.523438 434.914062 291.679688 454.191406 291.679688 C 474.125 291.699219 485.882812 306.765625 485.882812 326.316406 Z M 434.839844 327.273438 C 434.839844 341.226562 441.871094 352.320312 453.816406 352.320312 C 465.871094 352.320312 472.699219 341.085938 472.699219 326.777344 C 472.699219 313.875 466.300781 301.679688 453.847656 301.679688 C 441.488281 301.683594 434.839844 313.238281 434.839844 327.289062 Z M 434.839844 327.273438 " fill-opacity="1" fill-rule="nonzero"/><path fill="#000000" d="M 496.585938 293.75 C 503.1875 292.742188 509.828125 292.253906 516.507812 292.28125 C 529.328125 292.28125 538.066406 294.949219 544.355469 300.1875 C 550.996094 305.59375 555.066406 313.746094 555.066406 325.355469 C 555.066406 337.609375 550.886719 346.679688 544.429688 352.570312 C 537.570312 358.730469 526.757812 361.878906 513.476562 361.878906 C 507.832031 361.929688 502.207031 361.632812 496.597656 360.980469 Z M 509.0625 351.683594 C 510.8125 351.984375 513.46875 352.019531 516.019531 352.019531 C 532.230469 352.105469 541.875 343.105469 541.875 325.785156 C 541.941406 310.699219 533.28125 302 517.578125 302 C 514.714844 301.957031 511.875 302.199219 509.0625 302.734375 Z M 509.0625 351.683594 " fill-opacity="1" fill-rule="nonzero"/><path fill="#000000" d="M 578.253906 292.8125 L 578.253906 332.691406 C 578.253906 346.054688 583.792969 352.289062 592.257812 352.289062 C 601.242188 352.289062 606.652344 346.121094 606.652344 332.691406 L 606.652344 292.8125 L 619.152344 292.8125 L 619.152344 331.886719 C 619.152344 352.953125 608.316406 362.332031 591.808594 362.332031 C 576.042969 362.332031 565.769531 353.476562 565.769531 331.957031 L 565.769531 292.8125 Z M 578.253906 292.8125 " fill-opacity="1" fill-rule="nonzero"/><path fill="#000000" d="M 633.363281 293.75 C 638.105469 292.886719 645.042969 292.28125 652.292969 292.28125 C 662.085938 292.28125 668.769531 293.9375 673.386719 297.792969 C 677.148438 300.921875 679.277344 305.664062 679.277344 311.535156 C 679.277344 320.34375 673.292969 326.351562 666.84375 328.621094 L 666.84375 328.910156 C 671.796875 330.789062 674.679688 335.503906 676.375 342.148438 C 678.546875 350.707031 680.410156 358.570312 681.773438 361.214844 L 668.953125 361.214844 C 667.890625 359.234375 666.261719 353.585938 664.347656 345.078125 C 662.394531 336.160156 659.148438 333.265625 652.054688 333.101562 L 645.765625 333.101562 L 645.765625 361.214844 L 633.378906 361.214844 Z M 645.75 323.941406 L 653.125 323.941406 C 661.59375 323.941406 666.796875 319.472656 666.796875 312.679688 C 666.796875 305.25 661.558594 301.730469 653.484375 301.707031 C 649.523438 301.707031 647 302.015625 645.726562 302.34375 Z M 645.75 323.941406 " fill-opacity="1" fill-rule="nonzero"/><path fill="#575756" d="M 269.71875 410.304688 C 269.75 412.074219 269.40625 413.769531 268.695312 415.386719 C 268.027344 416.875 267.070312 418.148438 265.824219 419.203125 C 264.519531 420.292969 263.058594 421.089844 261.4375 421.597656 C 259.632812 422.167969 257.785156 422.441406 255.890625 422.425781 C 254.589844 422.429688 253.300781 422.296875 252.027344 422.035156 C 250.925781 421.8125 249.847656 421.511719 248.792969 421.125 C 247.96875 420.828125 247.171875 420.472656 246.402344 420.050781 C 245.914062 419.804688 245.46875 419.496094 245.066406 419.128906 C 244.820312 418.871094 244.644531 418.574219 244.535156 418.238281 C 244.414062 417.820312 244.359375 417.394531 244.371094 416.960938 C 244.367188 416.652344 244.390625 416.347656 244.4375 416.039062 C 244.46875 415.832031 244.53125 415.636719 244.621094 415.445312 C 244.683594 415.304688 244.78125 415.199219 244.917969 415.128906 C 245.042969 415.074219 245.171875 415.046875 245.308594 415.046875 C 245.796875 415.121094 246.230469 415.3125 246.613281 415.625 C 247.308594 416.09375 248.035156 416.511719 248.789062 416.878906 C 249.820312 417.390625 250.890625 417.808594 251.992188 418.136719 C 253.410156 418.546875 254.855469 418.742188 256.332031 418.714844 C 257.59375 418.726562 258.824219 418.546875 260.027344 418.171875 C 261.097656 417.839844 262.066406 417.316406 262.933594 416.605469 C 263.761719 415.914062 264.394531 415.070312 264.832031 414.082031 C 265.300781 412.992188 265.527344 411.851562 265.507812 410.664062 C 265.539062 409.449219 265.253906 408.3125 264.648438 407.257812 C 264.054688 406.285156 263.300781 405.453125 262.386719 404.765625 C 261.390625 404.007812 260.328125 403.355469 259.203125 402.808594 C 258.015625 402.226562 256.800781 401.644531 255.554688 401.058594 C 254.308594 400.472656 253.09375 399.839844 251.910156 399.15625 C 250.746094 398.496094 249.683594 397.699219 248.722656 396.765625 C 247.773438 395.832031 247.019531 394.757812 246.464844 393.542969 C 245.851562 392.140625 245.566406 390.675781 245.605469 389.148438 C 245.578125 387.609375 245.871094 386.132812 246.484375 384.71875 C 247.066406 383.417969 247.902344 382.304688 248.992188 381.378906 C 250.144531 380.425781 251.4375 379.726562 252.871094 379.285156 C 254.488281 378.78125 256.144531 378.539062 257.839844 378.558594 C 258.757812 378.558594 259.671875 378.648438 260.574219 378.824219 C 261.464844 378.984375 262.339844 379.207031 263.203125 379.488281 C 263.964844 379.738281 264.703125 380.042969 265.414062 380.410156 C 265.878906 380.628906 266.308594 380.90625 266.699219 381.238281 C 266.847656 381.378906 266.976562 381.53125 267.089844 381.699219 C 267.152344 381.828125 267.203125 381.957031 267.238281 382.09375 C 267.285156 382.269531 267.316406 382.453125 267.335938 382.636719 C 267.359375 382.894531 267.371094 383.15625 267.367188 383.417969 C 267.371094 383.679688 267.355469 383.941406 267.320312 384.199219 C 267.292969 384.40625 267.242188 384.605469 267.171875 384.796875 C 267.121094 384.949219 267.035156 385.078125 266.921875 385.1875 C 266.824219 385.277344 266.710938 385.320312 266.578125 385.320312 C 266.167969 385.257812 265.800781 385.097656 265.472656 384.839844 C 264.976562 384.523438 264.355469 384.167969 263.605469 383.765625 C 262.746094 383.328125 261.855469 382.96875 260.933594 382.695312 C 259.785156 382.359375 258.613281 382.195312 257.417969 382.214844 C 256.253906 382.1875 255.117188 382.367188 254.015625 382.746094 C 253.113281 383.054688 252.3125 383.535156 251.609375 384.179688 C 250.972656 384.78125 250.492188 385.492188 250.171875 386.3125 C 249.847656 387.132812 249.6875 387.988281 249.6875 388.871094 C 249.652344 390.085938 249.9375 391.21875 250.542969 392.273438 C 251.144531 393.253906 251.902344 394.09375 252.820312 394.785156 C 253.828125 395.546875 254.902344 396.199219 256.039062 396.742188 C 257.238281 397.328125 258.457031 397.910156 259.703125 398.492188 C 260.949219 399.074219 262.167969 399.703125 263.367188 400.378906 C 264.542969 401.03125 265.617188 401.824219 266.585938 402.753906 C 267.542969 403.683594 268.300781 404.75 268.863281 405.960938 C 269.472656 407.34375 269.757812 408.792969 269.71875 410.304688 Z M 269.71875 410.304688 " fill-opacity="1" fill-rule="nonzero"/><path fill="#575756" d="M 318.125 399.996094 C 318.164062 403.136719 317.773438 406.226562 316.953125 409.261719 C 316.261719 411.859375 315.089844 414.214844 313.4375 416.332031 C 311.839844 418.320312 309.871094 419.824219 307.53125 420.839844 C 304.871094 421.960938 302.101562 422.488281 299.21875 422.429688 C 296.046875 422.429688 293.324219 421.925781 291.046875 420.921875 C 288.8125 419.964844 286.945312 418.53125 285.4375 416.621094 C 283.878906 414.578125 282.800781 412.304688 282.203125 409.800781 C 281.472656 406.816406 281.128906 403.785156 281.164062 400.714844 C 281.136719 397.621094 281.527344 394.582031 282.335938 391.597656 C 283.023438 389.023438 284.195312 386.695312 285.851562 384.609375 C 287.460938 382.644531 289.433594 381.152344 291.761719 380.136719 C 294.125 379.078125 296.902344 378.550781 300.09375 378.550781 C 303.195312 378.550781 305.878906 379.046875 308.148438 380.035156 C 310.378906 380.988281 312.253906 382.410156 313.773438 384.296875 C 315.347656 386.3125 316.449219 388.558594 317.074219 391.039062 C 317.820312 393.976562 318.171875 396.960938 318.125 399.996094 Z M 313.828125 400.359375 C 313.839844 397.960938 313.605469 395.589844 313.117188 393.242188 C 312.703125 391.164062 311.921875 389.238281 310.773438 387.460938 C 309.664062 385.789062 308.21875 384.5 306.433594 383.59375 C 304.628906 382.65625 302.394531 382.191406 299.734375 382.191406 C 297.074219 382.191406 294.84375 382.679688 293.050781 383.660156 C 291.253906 384.613281 289.78125 385.929688 288.628906 387.609375 C 287.4375 389.378906 286.625 391.304688 286.183594 393.390625 C 285.679688 395.6875 285.433594 398.007812 285.441406 400.359375 C 285.425781 402.796875 285.652344 405.214844 286.117188 407.609375 C 286.507812 409.703125 287.273438 411.644531 288.414062 413.441406 C 289.507812 415.121094 290.949219 416.414062 292.734375 417.324219 C 294.539062 418.261719 296.796875 418.730469 299.503906 418.726562 C 302.210938 418.722656 304.46875 418.222656 306.269531 417.226562 C 308.078125 416.25 309.550781 414.90625 310.691406 413.195312 C 311.867188 411.390625 312.667969 409.4375 313.101562 407.328125 C 313.597656 405.03125 313.84375 402.707031 313.835938 400.359375 Z M 313.828125 400.359375 " fill-opacity="1" fill-rule="nonzero"/><path fill="#575756" d="M 354.484375 420.015625 C 354.488281 420.277344 354.464844 420.539062 354.417969 420.796875 C 354.378906 421 354.3125 421.191406 354.21875 421.371094 C 354.144531 421.527344 354.035156 421.648438 353.890625 421.738281 C 353.746094 421.820312 353.589844 421.859375 353.425781 421.855469 L 334.910156 421.855469 C 334.457031 421.835938 334.050781 421.6875 333.691406 421.40625 C 333.269531 421.109375 333.0625 420.5625 333.0625 419.773438 L 333.0625 379.78125 C 333.058594 379.652344 333.09375 379.53125 333.160156 379.417969 C 333.242188 379.292969 333.351562 379.203125 333.492188 379.152344 C 333.695312 379.074219 333.902344 379.019531 334.117188 378.988281 C 334.433594 378.941406 334.753906 378.917969 335.074219 378.921875 C 335.402344 378.917969 335.726562 378.9375 336.050781 378.988281 C 336.261719 379.019531 336.464844 379.074219 336.660156 379.152344 C 336.800781 379.203125 336.910156 379.292969 336.988281 379.417969 C 337.054688 379.53125 337.089844 379.652344 337.089844 379.78125 L 337.089844 418.195312 L 353.425781 418.195312 C 353.589844 418.191406 353.746094 418.230469 353.890625 418.3125 C 354.027344 418.394531 354.136719 418.503906 354.21875 418.640625 C 354.316406 418.816406 354.382812 419.003906 354.417969 419.203125 C 354.464844 419.472656 354.488281 419.742188 354.484375 420.015625 Z M 354.484375 420.015625 " fill-opacity="1" fill-rule="nonzero"/><path fill="#575756" d="M 395.726562 406.140625 C 395.765625 408.519531 395.394531 410.828125 394.621094 413.078125 C 393.945312 415.015625 392.894531 416.722656 391.46875 418.199219 C 390.054688 419.625 388.40625 420.675781 386.519531 421.351562 C 384.414062 422.101562 382.246094 422.460938 380.015625 422.429688 C 377.945312 422.449219 375.9375 422.109375 373.992188 421.402344 C 372.1875 420.746094 370.601562 419.738281 369.238281 418.382812 C 367.84375 416.957031 366.808594 415.304688 366.136719 413.425781 C 365.355469 411.21875 364.988281 408.941406 365.03125 406.601562 L 365.03125 379.78125 C 365.027344 379.652344 365.0625 379.53125 365.128906 379.417969 C 365.214844 379.289062 365.332031 379.199219 365.476562 379.152344 C 365.675781 379.078125 365.878906 379.023438 366.085938 378.988281 C 366.402344 378.9375 366.722656 378.917969 367.042969 378.921875 C 367.363281 378.917969 367.683594 378.941406 368.003906 378.988281 C 368.21875 379.019531 368.425781 379.074219 368.628906 379.152344 C 368.769531 379.203125 368.878906 379.292969 368.960938 379.417969 C 369.027344 379.53125 369.058594 379.652344 369.058594 379.78125 L 369.058594 405.941406 C 369.027344 407.855469 369.289062 409.726562 369.839844 411.558594 C 370.292969 413.0625 371.042969 414.398438 372.085938 415.570312 C 373.082031 416.65625 374.269531 417.460938 375.648438 417.984375 C 377.175781 418.546875 378.757812 418.816406 380.386719 418.792969 C 382.023438 418.816406 383.613281 418.554688 385.15625 418.011719 C 386.527344 417.515625 387.710938 416.734375 388.703125 415.664062 C 389.730469 414.511719 390.472656 413.195312 390.929688 411.71875 C 391.484375 409.917969 391.746094 408.074219 391.710938 406.1875 L 391.710938 379.78125 C 391.710938 379.652344 391.742188 379.53125 391.808594 379.417969 C 391.890625 379.292969 392 379.203125 392.140625 379.152344 C 392.34375 379.074219 392.550781 379.019531 392.765625 378.988281 C 393.082031 378.941406 393.402344 378.917969 393.722656 378.921875 C 394.042969 378.917969 394.363281 378.941406 394.679688 378.988281 C 394.894531 379.015625 395.105469 379.070312 395.308594 379.152344 C 395.449219 379.203125 395.558594 379.292969 395.636719 379.417969 C 395.707031 379.53125 395.738281 379.652344 395.738281 379.78125 Z M 395.726562 406.140625 " fill-opacity="1" fill-rule="nonzero"/><path fill="#575756" d="M 439.0625 380.96875 C 439.066406 381.226562 439.042969 381.476562 438.996094 381.726562 C 438.960938 381.921875 438.898438 382.101562 438.800781 382.273438 C 438.71875 382.410156 438.605469 382.519531 438.46875 382.605469 C 438.335938 382.683594 438.191406 382.722656 438.039062 382.722656 L 425.300781 382.722656 L 425.300781 421.203125 C 425.304688 421.335938 425.269531 421.457031 425.203125 421.570312 C 425.121094 421.691406 425.011719 421.78125 424.871094 421.832031 C 424.667969 421.910156 424.460938 421.964844 424.246094 422 C 423.929688 422.046875 423.609375 422.066406 423.289062 422.066406 C 422.96875 422.070312 422.648438 422.046875 422.332031 422 C 422.117188 421.964844 421.90625 421.910156 421.703125 421.832031 C 421.5625 421.78125 421.453125 421.691406 421.371094 421.570312 C 421.304688 421.457031 421.273438 421.335938 421.273438 421.203125 L 421.273438 382.722656 L 408.535156 382.722656 C 408.375 382.726562 408.226562 382.6875 408.089844 382.605469 C 407.960938 382.515625 407.855469 382.40625 407.773438 382.273438 C 407.675781 382.101562 407.613281 381.921875 407.578125 381.726562 C 407.53125 381.476562 407.507812 381.226562 407.511719 380.96875 C 407.507812 380.699219 407.53125 380.429688 407.578125 380.160156 C 407.613281 379.957031 407.675781 379.765625 407.773438 379.582031 C 407.851562 379.441406 407.957031 379.324219 408.089844 379.234375 C 408.226562 379.152344 408.375 379.113281 408.535156 379.121094 L 438.039062 379.121094 C 438.191406 379.117188 438.335938 379.15625 438.46875 379.234375 C 438.609375 379.320312 438.71875 379.4375 438.800781 379.582031 C 438.898438 379.765625 438.960938 379.957031 438.996094 380.160156 C 439.046875 380.429688 439.066406 380.699219 439.0625 380.96875 Z M 439.0625 380.96875 " fill-opacity="1" fill-rule="nonzero"/><path fill="#575756" d="M 454.945312 421.203125 C 454.945312 421.335938 454.914062 421.457031 454.84375 421.570312 C 454.761719 421.691406 454.652344 421.78125 454.515625 421.832031 C 454.316406 421.910156 454.113281 421.964844 453.902344 422 C 453.578125 422.046875 453.253906 422.070312 452.929688 422.066406 C 452.609375 422.066406 452.289062 422.046875 451.972656 422 C 451.757812 421.964844 451.550781 421.910156 451.347656 421.832031 C 451.207031 421.78125 451.097656 421.691406 451.015625 421.570312 C 450.949219 421.457031 450.914062 421.335938 450.917969 421.203125 L 450.917969 379.761719 C 450.914062 379.628906 450.953125 379.507812 451.03125 379.398438 C 451.125 379.273438 451.246094 379.183594 451.394531 379.132812 C 451.597656 379.054688 451.808594 379 452.023438 378.96875 C 452.324219 378.921875 452.625 378.898438 452.929688 378.902344 C 453.253906 378.898438 453.578125 378.917969 453.902344 378.96875 C 454.113281 379 454.316406 379.054688 454.515625 379.132812 C 454.65625 379.183594 454.765625 379.273438 454.84375 379.398438 C 454.914062 379.511719 454.945312 379.632812 454.945312 379.761719 Z M 454.945312 421.203125 " fill-opacity="1" fill-rule="nonzero"/><path fill="#575756" d="M 506.847656 399.996094 C 506.886719 403.136719 506.496094 406.226562 505.675781 409.261719 C 504.984375 411.859375 503.8125 414.214844 502.160156 416.332031 C 500.5625 418.320312 498.59375 419.824219 496.253906 420.839844 C 493.59375 421.960938 490.820312 422.488281 487.933594 422.429688 C 484.765625 422.429688 482.042969 421.925781 479.765625 420.921875 C 477.53125 419.964844 475.660156 418.53125 474.15625 416.621094 C 472.597656 414.578125 471.519531 412.304688 470.921875 409.800781 C 470.191406 406.816406 469.84375 403.785156 469.882812 400.714844 C 469.847656 397.621094 470.230469 394.582031 471.035156 391.597656 C 471.71875 389.023438 472.890625 386.691406 474.550781 384.609375 C 476.164062 382.644531 478.136719 381.15625 480.46875 380.144531 C 482.832031 379.085938 485.609375 378.558594 488.800781 378.558594 C 491.902344 378.558594 494.585938 379.054688 496.855469 380.042969 C 499.082031 380.996094 500.957031 382.417969 502.480469 384.304688 C 504.054688 386.320312 505.152344 388.566406 505.78125 391.046875 C 506.53125 393.980469 506.886719 396.964844 506.847656 399.996094 Z M 502.550781 400.359375 C 502.566406 397.960938 502.328125 395.589844 501.84375 393.242188 C 501.429688 391.167969 500.648438 389.238281 499.5 387.460938 C 498.390625 385.789062 496.945312 384.5 495.160156 383.59375 C 493.355469 382.65625 491.121094 382.191406 488.457031 382.191406 C 485.792969 382.191406 483.566406 382.679688 481.777344 383.660156 C 479.980469 384.613281 478.503906 385.929688 477.351562 387.609375 C 476.164062 389.378906 475.351562 391.304688 474.910156 393.390625 C 474.402344 395.6875 474.15625 398.007812 474.167969 400.359375 C 474.152344 402.796875 474.378906 405.214844 474.84375 407.609375 C 475.234375 409.703125 475.996094 411.644531 477.136719 413.441406 C 478.230469 415.121094 479.671875 416.414062 481.460938 417.324219 C 483.265625 418.261719 485.519531 418.730469 488.226562 418.726562 C 490.933594 418.722656 493.1875 418.222656 494.992188 417.226562 C 496.800781 416.25 498.277344 414.90625 499.417969 413.195312 C 500.59375 411.390625 501.394531 409.4375 501.824219 407.328125 C 502.320312 405.03125 502.5625 402.707031 502.554688 400.359375 Z M 502.550781 400.359375 " fill-opacity="1" fill-rule="nonzero"/><path fill="#575756" d="M 552.445312 419.914062 C 552.457031 420.257812 552.398438 420.589844 552.265625 420.90625 C 552.15625 421.152344 552 421.367188 551.804688 421.554688 C 551.621094 421.714844 551.410156 421.828125 551.175781 421.898438 C 550.964844 421.960938 550.75 421.996094 550.53125 422 L 549.707031 422 C 549.296875 422.003906 548.894531 421.949219 548.503906 421.832031 C 548.113281 421.707031 547.761719 421.515625 547.445312 421.253906 C 547.058594 420.929688 546.71875 420.5625 546.421875 420.148438 C 546.011719 419.574219 545.632812 418.976562 545.285156 418.363281 L 530.234375 391.671875 C 529.484375 390.367188 528.730469 389.03125 527.972656 387.660156 C 527.214844 386.289062 526.496094 384.949219 525.8125 383.644531 L 525.78125 383.644531 C 525.804688 385.253906 525.816406 386.898438 525.816406 388.582031 L 525.816406 421.203125 C 525.816406 421.335938 525.785156 421.457031 525.714844 421.570312 C 525.632812 421.691406 525.523438 421.78125 525.386719 421.832031 C 525.1875 421.90625 524.984375 421.964844 524.777344 422 C 524.125 422.089844 523.476562 422.089844 522.824219 422 C 522.609375 421.964844 522.402344 421.910156 522.199219 421.832031 C 522.058594 421.78125 521.949219 421.691406 521.867188 421.570312 C 521.800781 421.457031 521.765625 421.335938 521.769531 421.203125 L 521.769531 381.199219 C 521.769531 380.417969 521.976562 379.863281 522.394531 379.566406 C 522.753906 379.285156 523.160156 379.136719 523.617188 379.121094 L 525.269531 379.121094 C 525.714844 379.113281 526.152344 379.15625 526.585938 379.25 C 526.933594 379.335938 527.253906 379.484375 527.542969 379.695312 C 527.871094 379.949219 528.152344 380.246094 528.386719 380.589844 C 528.71875 381.0625 529.019531 381.554688 529.292969 382.0625 L 540.8125 402.507812 C 541.539062 403.78125 542.226562 405.011719 542.875 406.191406 C 543.523438 407.371094 544.15625 408.527344 544.773438 409.660156 C 545.390625 410.792969 546 411.910156 546.605469 413.015625 C 547.210938 414.117188 547.808594 415.226562 548.402344 416.347656 L 548.4375 416.347656 C 548.414062 414.5 548.402344 412.570312 548.402344 410.566406 L 548.402344 379.910156 C 548.402344 379.78125 548.4375 379.660156 548.503906 379.546875 C 548.585938 379.421875 548.695312 379.328125 548.832031 379.269531 C 549.027344 379.179688 549.230469 379.125 549.445312 379.101562 C 549.769531 379.066406 550.09375 379.050781 550.417969 379.054688 C 550.726562 379.050781 551.035156 379.066406 551.339844 379.101562 C 551.558594 379.121094 551.769531 379.179688 551.96875 379.269531 C 552.109375 379.332031 552.222656 379.425781 552.316406 379.546875 C 552.390625 379.65625 552.429688 379.777344 552.429688 379.910156 Z M 552.445312 419.914062 " fill-opacity="1" fill-rule="nonzero"/><path fill="#575756" d="M 591.609375 410.304688 C 591.640625 412.074219 591.296875 413.769531 590.585938 415.386719 C 589.917969 416.875 588.960938 418.148438 587.714844 419.203125 C 586.410156 420.292969 584.945312 421.089844 583.324219 421.597656 C 581.519531 422.167969 579.671875 422.441406 577.78125 422.425781 C 576.480469 422.429688 575.191406 422.296875 573.917969 422.035156 C 572.816406 421.8125 571.738281 421.511719 570.683594 421.125 C 569.859375 420.828125 569.0625 420.472656 568.292969 420.050781 C 567.804688 419.804688 567.359375 419.496094 566.953125 419.128906 C 566.707031 418.871094 566.53125 418.574219 566.425781 418.238281 C 566.304688 417.820312 566.25 417.394531 566.261719 416.960938 C 566.257812 416.652344 566.28125 416.347656 566.328125 416.039062 C 566.359375 415.832031 566.421875 415.636719 566.507812 415.445312 C 566.570312 415.304688 566.667969 415.199219 566.804688 415.128906 C 566.929688 415.074219 567.058594 415.046875 567.195312 415.046875 C 567.683594 415.121094 568.117188 415.3125 568.496094 415.625 C 569.195312 416.09375 569.921875 416.511719 570.675781 416.878906 C 571.707031 417.390625 572.773438 417.808594 573.878906 418.136719 C 575.296875 418.546875 576.742188 418.742188 578.21875 418.714844 C 579.480469 418.726562 580.710938 418.546875 581.914062 418.171875 C 582.984375 417.839844 583.953125 417.316406 584.820312 416.605469 C 585.648438 415.914062 586.28125 415.070312 586.714844 414.082031 C 587.1875 412.992188 587.414062 411.851562 587.394531 410.664062 C 587.425781 409.449219 587.140625 408.3125 586.535156 407.257812 C 585.9375 406.285156 585.183594 405.453125 584.273438 404.765625 C 583.277344 404.007812 582.214844 403.355469 581.089844 402.808594 C 579.902344 402.226562 578.6875 401.644531 577.441406 401.058594 C 576.195312 400.472656 574.980469 399.839844 573.792969 399.15625 C 572.628906 398.496094 571.566406 397.699219 570.609375 396.765625 C 569.664062 395.835938 568.914062 394.765625 568.359375 393.5625 C 567.75 392.160156 567.464844 390.695312 567.503906 389.167969 C 567.476562 387.625 567.773438 386.144531 568.394531 384.726562 C 568.976562 383.425781 569.8125 382.3125 570.902344 381.386719 C 572.054688 380.433594 573.347656 379.734375 574.78125 379.292969 C 576.398438 378.789062 578.054688 378.546875 579.746094 378.566406 C 580.664062 378.570312 581.578125 378.65625 582.480469 378.832031 C 583.371094 378.996094 584.242188 379.222656 585.101562 379.507812 C 585.863281 379.753906 586.601562 380.0625 587.3125 380.429688 C 587.777344 380.652344 588.207031 380.925781 588.601562 381.257812 C 588.75 381.398438 588.878906 381.550781 588.992188 381.71875 C 589.058594 381.84375 589.105469 381.976562 589.140625 382.113281 C 589.191406 382.289062 589.226562 382.472656 589.242188 382.65625 C 589.242188 382.867188 589.273438 383.125 589.273438 383.4375 C 589.277344 383.699219 589.261719 383.960938 589.226562 384.21875 C 589.199219 384.425781 589.148438 384.625 589.074219 384.816406 C 589.023438 384.96875 588.941406 385.097656 588.828125 385.207031 C 588.730469 385.296875 588.613281 385.339844 588.480469 385.339844 C 588.070312 385.273438 587.703125 385.113281 587.375 384.859375 C 586.882812 384.542969 586.257812 384.183594 585.511719 383.785156 C 584.652344 383.347656 583.761719 382.988281 582.839844 382.714844 C 581.691406 382.378906 580.519531 382.21875 579.324219 382.234375 C 578.160156 382.210938 577.027344 382.386719 575.925781 382.765625 C 575.023438 383.074219 574.21875 383.554688 573.515625 384.199219 C 572.878906 384.800781 572.398438 385.511719 572.082031 386.332031 C 571.757812 387.160156 571.597656 388.015625 571.601562 388.90625 C 571.566406 390.121094 571.851562 391.253906 572.460938 392.308594 C 573.058594 393.292969 573.820312 394.128906 574.738281 394.820312 C 575.746094 395.582031 576.820312 396.234375 577.957031 396.777344 C 579.15625 397.363281 580.378906 397.949219 581.621094 398.527344 C 582.863281 399.109375 584.085938 399.738281 585.285156 400.414062 C 586.460938 401.066406 587.53125 401.859375 588.5 402.789062 C 589.460938 403.714844 590.21875 404.785156 590.777344 405.996094 C 591.375 407.371094 591.652344 408.808594 591.609375 410.304688 Z M 591.609375 410.304688 " fill-opacity="1" fill-rule="nonzero"/></svg>