<svg xmlns="http://www.w3.org/2000/svg" xmlns:xlink="http://www.w3.org/1999/xlink" width="500" zoomAndPan="magnify" viewBox="0 0 375 374.999991" height="500" preserveAspectRatio="xMidYMid meet" version="1.0"><defs><clipPath id="64d90b3c95"><path d="M 43.894531 41.171875 L 333.261719 41.171875 L 333.261719 204 L 43.894531 204 Z M 43.894531 41.171875 " clip-rule="nonzero"/></clipPath><clipPath id="e801697e23"><path d="M 42 41.144531 L 74 41.144531 L 74 275 L 42 275 Z M 42 41.144531 " clip-rule="nonzero"/></clipPath><clipPath id="4f165ed34d"><path d="M 41.511719 99.574219 L 304.519531 99.574219 L 304.519531 333.644531 L 41.511719 333.644531 Z M 41.511719 99.574219 " clip-rule="nonzero"/></clipPath></defs><g clip-path="url(#64d90b3c95)"><path fill="#0097b2" d="M 333.46875 189.175781 C 333.46875 189.058594 333.472656 188.945312 333.476562 188.828125 C 333.472656 188.710938 333.472656 188.59375 333.472656 188.476562 L 333.480469 188.476562 C 333.988281 116.769531 282.199219 56.664062 213.882812 44.417969 C 205.921875 43.230469 197.789062 42.566406 189.511719 42.488281 L 131.390625 41.953125 L 56.023438 41.253906 L 44.207031 41.171875 L 43.9375 70.207031 L 73 70.476562 L 85.242188 70.589844 L 189.242188 71.550781 C 264.53125 72.246094 326.089844 130.375 332.632812 203.863281 C 333.15625 199.035156 333.441406 194.132812 333.476562 189.175781 L 333.46875 189.175781 " fill-opacity="1" fill-rule="nonzero"/></g><path fill="#0097b2" d="M 244.328125 203.023438 C 238.238281 225.75 218.546875 242.859375 194.746094 245.800781 C 192.464844 246.355469 190.078125 246.644531 187.625 246.621094 L 42.316406 245.277344 L 42.046875 274.339844 L 186.613281 275.675781 C 218.613281 275.96875 245.402344 250.664062 246.007812 218.667969 C 246.011719 218.359375 246.007812 218.054688 246.003906 217.746094 C 246.011719 217.4375 246.027344 217.132812 246.027344 216.824219 C 246.023438 212.0625 245.425781 207.445312 244.328125 203.023438 " fill-opacity="1" fill-rule="nonzero"/><g clip-path="url(#e801697e23)"><path fill="#0097b2" d="M 71.109375 274.605469 L 73.265625 41.441406 L 44.203125 41.171875 L 42.046875 274.339844 L 71.109375 274.605469 " fill-opacity="1" fill-rule="nonzero"/></g><g clip-path="url(#4f165ed34d)"><path fill="#0097b2" d="M 304.148438 217.601562 C 304.5625 153.34375 252.105469 101.195312 187.851562 100.601562 L 101.789062 99.804688 L 101.523438 128.867188 L 136.40625 129.1875 L 188.707031 129.671875 C 236.855469 130.117188 275.53125 169.511719 275.085938 217.664062 L 275.078125 217.664062 C 275.078125 217.78125 275.078125 217.898438 275.078125 218.015625 C 275.074219 218.128906 275.070312 218.246094 275.070312 218.363281 L 275.078125 218.363281 C 274.632812 266.515625 235.238281 305.1875 187.085938 304.742188 L 170.742188 304.59375 L 128.964844 304.207031 L 41.78125 303.398438 L 41.511719 332.460938 L 185.695312 333.796875 C 249.949219 334.386719 303.363281 283.21875 304.136719 218.960938 C 304.136719 218.734375 304.136719 218.507812 304.136719 218.28125 C 304.140625 218.054688 304.148438 217.828125 304.148438 217.601562 " fill-opacity="1" fill-rule="nonzero"/></g></svg>