<svg xmlns="http://www.w3.org/2000/svg" xmlns:xlink="http://www.w3.org/1999/xlink" width="500" zoomAndPan="magnify" viewBox="0 0 375 374.999991" height="500" preserveAspectRatio="xMidYMid meet" version="1.0"><defs><g/><clipPath id="a47bdb2642"><path d="M 113.910156 72.335938 L 262.3125 72.335938 L 262.3125 155.8125 L 113.910156 155.8125 Z M 113.910156 72.335938 " clip-rule="nonzero"/></clipPath><clipPath id="0d8ea14b1a"><path d="M 112.6875 155 L 218 155 L 218 193 L 112.6875 193 Z M 112.6875 155 " clip-rule="nonzero"/></clipPath><clipPath id="1841f80025"><path d="M 112.6875 72.320312 L 129 72.320312 L 129 192 L 112.6875 192 Z M 112.6875 72.320312 " clip-rule="nonzero"/></clipPath><clipPath id="b993bcd42d"><path d="M 112.6875 102.265625 L 247.46875 102.265625 L 247.46875 222.296875 L 112.6875 222.296875 Z M 112.6875 102.265625 " clip-rule="nonzero"/></clipPath></defs><g clip-path="url(#a47bdb2642)"><path fill="#0097b2" d="M 262.304688 148.183594 C 262.304688 148.121094 262.304688 148.0625 262.308594 148.003906 C 262.308594 147.941406 262.304688 147.882812 262.304688 147.824219 L 262.3125 147.824219 C 262.570312 111.078125 236.03125 80.277344 201.019531 74 C 196.941406 73.390625 192.773438 73.050781 188.53125 73.011719 L 158.746094 72.734375 L 120.125 72.378906 L 114.066406 72.335938 L 113.929688 87.214844 L 128.824219 87.351562 L 135.097656 87.410156 L 188.394531 87.902344 C 226.976562 88.257812 258.523438 118.050781 261.875 155.710938 C 262.144531 153.234375 262.289062 150.722656 262.308594 148.183594 L 262.304688 148.183594 " fill-opacity="1" fill-rule="nonzero"/></g><g clip-path="url(#0d8ea14b1a)"><path fill="#0097b2" d="M 216.625 155.277344 C 213.503906 166.925781 203.410156 175.691406 191.214844 177.199219 C 190.042969 177.484375 188.824219 177.632812 187.566406 177.621094 L 113.101562 176.933594 L 112.960938 191.824219 L 187.046875 192.507812 C 203.445312 192.660156 217.171875 179.691406 217.484375 163.296875 C 217.488281 163.136719 217.484375 162.980469 217.480469 162.824219 C 217.484375 162.664062 217.492188 162.507812 217.492188 162.351562 C 217.492188 159.910156 217.1875 157.542969 216.625 155.277344 " fill-opacity="1" fill-rule="nonzero"/></g><g clip-path="url(#1841f80025)"><path fill="#0097b2" d="M 127.855469 191.960938 L 128.960938 72.472656 L 114.066406 72.335938 L 112.960938 191.824219 L 127.855469 191.960938 " fill-opacity="1" fill-rule="nonzero"/></g><g clip-path="url(#b993bcd42d)"><path fill="#0097b2" d="M 247.277344 162.75 C 247.492188 129.820312 220.609375 103.09375 187.679688 102.789062 L 143.578125 102.382812 L 143.441406 117.277344 L 161.316406 117.441406 L 188.121094 117.6875 C 212.792969 117.917969 232.613281 138.105469 232.382812 162.78125 L 232.378906 162.78125 C 232.378906 162.839844 232.378906 162.902344 232.382812 162.960938 C 232.378906 163.019531 232.378906 163.078125 232.378906 163.140625 L 232.382812 163.140625 C 232.152344 187.816406 211.964844 207.632812 187.289062 207.40625 L 178.914062 207.328125 L 157.503906 207.128906 L 112.824219 206.71875 L 112.6875 221.609375 L 186.574219 222.292969 C 219.503906 222.597656 246.875 196.375 247.273438 163.445312 C 247.273438 163.328125 247.273438 163.214844 247.273438 163.097656 C 247.273438 162.980469 247.277344 162.867188 247.277344 162.75 " fill-opacity="1" fill-rule="nonzero"/></g><g fill="#0097b2" fill-opacity="1"><g transform="translate(64.722656, 260.725003)"><g><path d="M 9.75 0 L 2.296875 0 L 2.296875 -19.265625 L 9.71875 -19.265625 C 11.25 -19.265625 12.640625 -19.035156 13.890625 -18.578125 C 15.148438 -18.117188 16.234375 -17.460938 17.140625 -16.609375 C 18.046875 -15.753906 18.738281 -14.738281 19.21875 -13.5625 C 19.707031 -12.394531 19.953125 -11.085938 19.953125 -9.640625 C 19.953125 -8.203125 19.707031 -6.890625 19.21875 -5.703125 C 18.738281 -4.515625 18.046875 -3.492188 17.140625 -2.640625 C 16.242188 -1.796875 15.171875 -1.144531 13.921875 -0.6875 C 12.671875 -0.226562 11.28125 0 9.75 0 Z M 5.765625 -16.125 L 5.765625 -3.140625 L 9.640625 -3.140625 C 11.046875 -3.140625 12.253906 -3.398438 13.265625 -3.921875 C 14.273438 -4.453125 15.046875 -5.195312 15.578125 -6.15625 C 16.117188 -7.125 16.390625 -8.269531 16.390625 -9.59375 C 16.390625 -10.90625 16.125 -12.050781 15.59375 -13.03125 C 15.070312 -14.007812 14.304688 -14.769531 13.296875 -15.3125 C 12.285156 -15.851562 11.054688 -16.125 9.609375 -16.125 Z M 5.765625 -16.125 "/></g></g></g><g fill="#0097b2" fill-opacity="1"><g transform="translate(85.617415, 260.725003)"><g><path d="M 7.828125 0.4375 C 6.847656 0.4375 5.941406 0.238281 5.109375 -0.15625 C 4.273438 -0.550781 3.546875 -1.101562 2.921875 -1.8125 C 2.304688 -2.519531 1.828125 -3.335938 1.484375 -4.265625 C 1.148438 -5.203125 0.984375 -6.207031 0.984375 -7.28125 C 0.984375 -8.34375 1.15625 -9.335938 1.5 -10.265625 C 1.84375 -11.203125 2.320312 -12.023438 2.9375 -12.734375 C 3.550781 -13.441406 4.273438 -13.992188 5.109375 -14.390625 C 5.941406 -14.796875 6.84375 -15 7.8125 -15 C 9 -15 10.054688 -14.738281 10.984375 -14.21875 C 11.910156 -13.707031 12.601562 -13 13.0625 -12.09375 L 13.0625 -14.5625 L 16.328125 -14.5625 L 16.328125 0 L 13.0625 0 L 13.0625 -2.453125 C 12.59375 -1.546875 11.894531 -0.835938 10.96875 -0.328125 C 10.050781 0.179688 9.003906 0.4375 7.828125 0.4375 Z M 8.65625 -2.734375 C 9.25 -2.734375 9.804688 -2.847656 10.328125 -3.078125 C 10.847656 -3.304688 11.300781 -3.625 11.6875 -4.03125 C 12.082031 -4.445312 12.382812 -4.929688 12.59375 -5.484375 C 12.8125 -6.035156 12.921875 -6.632812 12.921875 -7.28125 C 12.921875 -7.914062 12.8125 -8.507812 12.59375 -9.0625 C 12.375 -9.613281 12.070312 -10.09375 11.6875 -10.5 C 11.300781 -10.914062 10.847656 -11.238281 10.328125 -11.46875 C 9.804688 -11.707031 9.25 -11.828125 8.65625 -11.828125 C 7.875 -11.828125 7.15625 -11.632812 6.5 -11.25 C 5.851562 -10.875 5.335938 -10.347656 4.953125 -9.671875 C 4.566406 -8.992188 4.375 -8.195312 4.375 -7.28125 C 4.375 -6.332031 4.566406 -5.519531 4.953125 -4.84375 C 5.347656 -4.164062 5.867188 -3.644531 6.515625 -3.28125 C 7.171875 -2.914062 7.882812 -2.734375 8.65625 -2.734375 Z M 8.65625 -2.734375 "/></g></g></g><g fill="#0097b2" fill-opacity="1"><g transform="translate(103.949876, 260.725003)"><g><path d="M 5.4375 0 L 2.015625 0 L 2.015625 -19.953125 L 5.4375 -19.953125 Z M 5.4375 0 "/></g></g></g><g fill="#0097b2" fill-opacity="1"><g transform="translate(111.381955, 260.725003)"><g><path d="M 8.625 0.4375 C 7.519531 0.4375 6.5 0.238281 5.5625 -0.15625 C 4.625 -0.550781 3.8125 -1.101562 3.125 -1.8125 C 2.445312 -2.519531 1.921875 -3.335938 1.546875 -4.265625 C 1.171875 -5.203125 0.984375 -6.207031 0.984375 -7.28125 C 0.984375 -8.34375 1.171875 -9.335938 1.546875 -10.265625 C 1.921875 -11.203125 2.445312 -12.023438 3.125 -12.734375 C 3.8125 -13.441406 4.625 -13.992188 5.5625 -14.390625 C 6.5 -14.796875 7.523438 -15 8.640625 -15 C 9.765625 -15 10.789062 -14.796875 11.71875 -14.390625 C 12.65625 -13.992188 13.46875 -13.441406 14.15625 -12.734375 C 14.84375 -12.023438 15.375 -11.203125 15.75 -10.265625 C 16.132812 -9.335938 16.328125 -8.34375 16.328125 -7.28125 C 16.328125 -6.207031 16.132812 -5.203125 15.75 -4.265625 C 15.375 -3.335938 14.84375 -2.519531 14.15625 -1.8125 C 13.46875 -1.101562 12.65625 -0.550781 11.71875 -0.15625 C 10.78125 0.238281 9.75 0.4375 8.625 0.4375 Z M 8.65625 -2.75 C 9.476562 -2.75 10.207031 -2.941406 10.84375 -3.328125 C 11.488281 -3.722656 11.992188 -4.257812 12.359375 -4.9375 C 12.734375 -5.625 12.921875 -6.40625 12.921875 -7.28125 C 12.921875 -8.15625 12.734375 -8.9375 12.359375 -9.625 C 11.992188 -10.3125 11.488281 -10.847656 10.84375 -11.234375 C 10.207031 -11.628906 9.476562 -11.828125 8.65625 -11.828125 C 7.84375 -11.828125 7.113281 -11.628906 6.46875 -11.234375 C 5.820312 -10.847656 5.3125 -10.3125 4.9375 -9.625 C 4.5625 -8.9375 4.375 -8.15625 4.375 -7.28125 C 4.375 -6.40625 4.5625 -5.625 4.9375 -4.9375 C 5.3125 -4.257812 5.820312 -3.722656 6.46875 -3.328125 C 7.113281 -2.941406 7.84375 -2.75 8.65625 -2.75 Z M 8.65625 -2.75 "/></g></g></g><g fill="#0097b2" fill-opacity="1"><g transform="translate(128.681003, 260.725003)"><g><path d="M 8.015625 0.4375 C 6.984375 0.4375 6.035156 0.238281 5.171875 -0.15625 C 4.304688 -0.550781 3.5625 -1.101562 2.9375 -1.8125 C 2.320312 -2.519531 1.84375 -3.335938 1.5 -4.265625 C 1.15625 -5.203125 0.984375 -6.207031 0.984375 -7.28125 C 0.984375 -8.34375 1.148438 -9.335938 1.484375 -10.265625 C 1.816406 -11.203125 2.296875 -12.023438 2.921875 -12.734375 C 3.546875 -13.441406 4.289062 -13.992188 5.15625 -14.390625 C 6.03125 -14.796875 7 -15 8.0625 -15 C 8.851562 -15 9.570312 -14.859375 10.21875 -14.578125 C 10.863281 -14.296875 11.421875 -13.941406 11.890625 -13.515625 C 12.359375 -13.085938 12.71875 -12.640625 12.96875 -12.171875 L 12.90625 -13.6875 L 12.90625 -19.9375 L 16.3125 -19.9375 L 16.3125 0 L 13.0625 0 L 13.0625 -2.453125 C 12.769531 -1.941406 12.382812 -1.46875 11.90625 -1.03125 C 11.425781 -0.59375 10.859375 -0.238281 10.203125 0.03125 C 9.554688 0.300781 8.828125 0.4375 8.015625 0.4375 Z M 8.640625 -2.71875 C 9.234375 -2.71875 9.789062 -2.832031 10.3125 -3.0625 C 10.832031 -3.289062 11.285156 -3.613281 11.671875 -4.03125 C 12.066406 -4.445312 12.375 -4.929688 12.59375 -5.484375 C 12.8125 -6.035156 12.921875 -6.632812 12.921875 -7.28125 C 12.921875 -7.914062 12.8125 -8.507812 12.59375 -9.0625 C 12.382812 -9.613281 12.082031 -10.09375 11.6875 -10.5 C 11.300781 -10.914062 10.847656 -11.238281 10.328125 -11.46875 C 9.804688 -11.707031 9.242188 -11.828125 8.640625 -11.828125 C 7.835938 -11.828125 7.109375 -11.628906 6.453125 -11.234375 C 5.804688 -10.847656 5.289062 -10.3125 4.90625 -9.625 C 4.53125 -8.945312 4.34375 -8.164062 4.34375 -7.28125 C 4.34375 -6.414062 4.523438 -5.640625 4.890625 -4.953125 C 5.265625 -4.265625 5.773438 -3.71875 6.421875 -3.3125 C 7.066406 -2.914062 7.804688 -2.71875 8.640625 -2.71875 Z M 8.640625 -2.71875 "/></g></g></g><g fill="#0097b2" fill-opacity="1"><g transform="translate(146.985152, 260.725003)"><g><path d="M 8.546875 0.4375 C 7.578125 0.4375 6.675781 0.300781 5.84375 0.03125 C 5.019531 -0.238281 4.296875 -0.660156 3.671875 -1.234375 C 3.046875 -1.804688 2.5625 -2.550781 2.21875 -3.46875 C 1.875 -4.382812 1.703125 -5.488281 1.703125 -6.78125 L 1.703125 -14.5625 L 5.09375 -14.5625 L 5.09375 -6.875 C 5.09375 -5.539062 5.378906 -4.519531 5.953125 -3.8125 C 6.535156 -3.101562 7.394531 -2.75 8.53125 -2.75 C 9.6875 -2.75 10.546875 -3.101562 11.109375 -3.8125 C 11.679688 -4.53125 11.96875 -5.550781 11.96875 -6.875 L 11.96875 -14.5625 L 15.375 -14.5625 L 15.375 -6.78125 C 15.375 -5.488281 15.203125 -4.382812 14.859375 -3.46875 C 14.515625 -2.550781 14.03125 -1.804688 13.40625 -1.234375 C 12.78125 -0.660156 12.054688 -0.238281 11.234375 0.03125 C 10.410156 0.300781 9.515625 0.4375 8.546875 0.4375 Z M 8.546875 0.4375 "/></g></g></g><g fill="#0097b2" fill-opacity="1"><g transform="translate(164.057698, 260.725003)"><g><path d="M 5.4375 0 L 2.015625 0 L 2.015625 -14.5625 L 5.296875 -14.5625 L 5.296875 -11.921875 C 5.640625 -12.722656 6.140625 -13.363281 6.796875 -13.84375 C 7.453125 -14.320312 8.253906 -14.5625 9.203125 -14.5625 L 10.765625 -14.5625 L 10.765625 -11.609375 L 9.390625 -11.609375 C 8.609375 -11.609375 7.914062 -11.421875 7.3125 -11.046875 C 6.71875 -10.671875 6.253906 -10.125 5.921875 -9.40625 C 5.597656 -8.6875 5.4375 -7.804688 5.4375 -6.765625 Z M 5.4375 0 "/></g></g></g><g fill="#0097b2" fill-opacity="1"><g transform="translate(175.255364, 260.725003)"><g/></g></g><g fill="#0097b2" fill-opacity="1"><g transform="translate(182.319378, 260.725003)"><g><path d="M 8.796875 0.4375 C 7.410156 0.4375 6.21875 0.257812 5.21875 -0.09375 C 4.226562 -0.457031 3.421875 -0.9375 2.796875 -1.53125 C 2.171875 -2.132812 1.707031 -2.800781 1.40625 -3.53125 C 1.113281 -4.269531 0.96875 -5.019531 0.96875 -5.78125 L 4.484375 -5.78125 C 4.484375 -5.1875 4.648438 -4.640625 4.984375 -4.140625 C 5.328125 -3.648438 5.816406 -3.257812 6.453125 -2.96875 C 7.097656 -2.675781 7.875 -2.53125 8.78125 -2.53125 C 11.632812 -2.53125 13.0625 -3.488281 13.0625 -5.40625 C 13.0625 -6 12.878906 -6.484375 12.515625 -6.859375 C 12.148438 -7.234375 11.632812 -7.535156 10.96875 -7.765625 C 10.3125 -7.992188 9.535156 -8.195312 8.640625 -8.375 C 7.992188 -8.5 7.332031 -8.65625 6.65625 -8.84375 C 5.988281 -9.039062 5.34375 -9.28125 4.71875 -9.5625 C 4.101562 -9.84375 3.550781 -10.191406 3.0625 -10.609375 C 2.570312 -11.023438 2.179688 -11.523438 1.890625 -12.109375 C 1.597656 -12.691406 1.453125 -13.382812 1.453125 -14.1875 C 1.453125 -15.238281 1.703125 -16.175781 2.203125 -17 C 2.710938 -17.832031 3.5 -18.492188 4.5625 -18.984375 C 5.632812 -19.472656 7.003906 -19.71875 8.671875 -19.71875 C 10.273438 -19.71875 11.609375 -19.472656 12.671875 -18.984375 C 13.742188 -18.503906 14.550781 -17.828125 15.09375 -16.953125 C 15.644531 -16.085938 15.921875 -15.082031 15.921875 -13.9375 L 12.390625 -13.9375 C 12.390625 -14.4375 12.253906 -14.890625 11.984375 -15.296875 C 11.722656 -15.703125 11.316406 -16.023438 10.765625 -16.265625 C 10.210938 -16.503906 9.5 -16.625 8.625 -16.625 C 7.894531 -16.625 7.296875 -16.554688 6.828125 -16.421875 C 6.359375 -16.285156 5.988281 -16.097656 5.71875 -15.859375 C 5.445312 -15.617188 5.253906 -15.351562 5.140625 -15.0625 C 5.035156 -14.769531 4.984375 -14.472656 4.984375 -14.171875 C 4.984375 -13.367188 5.382812 -12.753906 6.1875 -12.328125 C 6.988281 -11.910156 8.195312 -11.566406 9.8125 -11.296875 C 10.695312 -11.140625 11.546875 -10.921875 12.359375 -10.640625 C 13.179688 -10.359375 13.910156 -9.992188 14.546875 -9.546875 C 15.191406 -9.097656 15.703125 -8.535156 16.078125 -7.859375 C 16.453125 -7.179688 16.640625 -6.359375 16.640625 -5.390625 C 16.640625 -4.148438 16.316406 -3.09375 15.671875 -2.21875 C 15.023438 -1.351562 14.113281 -0.691406 12.9375 -0.234375 C 11.757812 0.210938 10.378906 0.4375 8.796875 0.4375 Z M 8.796875 0.4375 "/></g></g></g><g fill="#0097b2" fill-opacity="1"><g transform="translate(199.844927, 260.725003)"><g><path d="M 8.625 0.4375 C 7.519531 0.4375 6.5 0.238281 5.5625 -0.15625 C 4.625 -0.550781 3.8125 -1.101562 3.125 -1.8125 C 2.445312 -2.519531 1.921875 -3.335938 1.546875 -4.265625 C 1.171875 -5.203125 0.984375 -6.207031 0.984375 -7.28125 C 0.984375 -8.34375 1.171875 -9.335938 1.546875 -10.265625 C 1.921875 -11.203125 2.445312 -12.023438 3.125 -12.734375 C 3.8125 -13.441406 4.625 -13.992188 5.5625 -14.390625 C 6.5 -14.796875 7.523438 -15 8.640625 -15 C 9.765625 -15 10.789062 -14.796875 11.71875 -14.390625 C 12.65625 -13.992188 13.46875 -13.441406 14.15625 -12.734375 C 14.84375 -12.023438 15.375 -11.203125 15.75 -10.265625 C 16.132812 -9.335938 16.328125 -8.34375 16.328125 -7.28125 C 16.328125 -6.207031 16.132812 -5.203125 15.75 -4.265625 C 15.375 -3.335938 14.84375 -2.519531 14.15625 -1.8125 C 13.46875 -1.101562 12.65625 -0.550781 11.71875 -0.15625 C 10.78125 0.238281 9.75 0.4375 8.625 0.4375 Z M 8.65625 -2.75 C 9.476562 -2.75 10.207031 -2.941406 10.84375 -3.328125 C 11.488281 -3.722656 11.992188 -4.257812 12.359375 -4.9375 C 12.734375 -5.625 12.921875 -6.40625 12.921875 -7.28125 C 12.921875 -8.15625 12.734375 -8.9375 12.359375 -9.625 C 11.992188 -10.3125 11.488281 -10.847656 10.84375 -11.234375 C 10.207031 -11.628906 9.476562 -11.828125 8.65625 -11.828125 C 7.84375 -11.828125 7.113281 -11.628906 6.46875 -11.234375 C 5.820312 -10.847656 5.3125 -10.3125 4.9375 -9.625 C 4.5625 -8.9375 4.375 -8.15625 4.375 -7.28125 C 4.375 -6.40625 4.5625 -5.625 4.9375 -4.9375 C 5.3125 -4.257812 5.820312 -3.722656 6.46875 -3.328125 C 7.113281 -2.941406 7.84375 -2.75 8.65625 -2.75 Z M 8.65625 -2.75 "/></g></g></g><g fill="#0097b2" fill-opacity="1"><g transform="translate(217.143975, 260.725003)"><g><path d="M 5.4375 0 L 2.015625 0 L 2.015625 -19.953125 L 5.4375 -19.953125 Z M 5.4375 0 "/></g></g></g><g fill="#0097b2" fill-opacity="1"><g transform="translate(224.576054, 260.725003)"><g><path d="M 8.546875 0.4375 C 7.578125 0.4375 6.675781 0.300781 5.84375 0.03125 C 5.019531 -0.238281 4.296875 -0.660156 3.671875 -1.234375 C 3.046875 -1.804688 2.5625 -2.550781 2.21875 -3.46875 C 1.875 -4.382812 1.703125 -5.488281 1.703125 -6.78125 L 1.703125 -14.5625 L 5.09375 -14.5625 L 5.09375 -6.875 C 5.09375 -5.539062 5.378906 -4.519531 5.953125 -3.8125 C 6.535156 -3.101562 7.394531 -2.75 8.53125 -2.75 C 9.6875 -2.75 10.546875 -3.101562 11.109375 -3.8125 C 11.679688 -4.53125 11.96875 -5.550781 11.96875 -6.875 L 11.96875 -14.5625 L 15.375 -14.5625 L 15.375 -6.78125 C 15.375 -5.488281 15.203125 -4.382812 14.859375 -3.46875 C 14.515625 -2.550781 14.03125 -1.804688 13.40625 -1.234375 C 12.78125 -0.660156 12.054688 -0.238281 11.234375 0.03125 C 10.410156 0.300781 9.515625 0.4375 8.546875 0.4375 Z M 8.546875 0.4375 "/></g></g></g><g fill="#0097b2" fill-opacity="1"><g transform="translate(241.648601, 260.725003)"><g><path d="M 10.953125 0 L 8 0 C 7.5625 0 7.113281 -0.0351562 6.65625 -0.109375 C 6.195312 -0.191406 5.757812 -0.34375 5.34375 -0.5625 C 4.9375 -0.78125 4.566406 -1.09375 4.234375 -1.5 C 3.910156 -1.914062 3.648438 -2.453125 3.453125 -3.109375 C 3.265625 -3.765625 3.171875 -4.570312 3.171875 -5.53125 L 3.171875 -11.609375 L 0.15625 -11.609375 L 0.15625 -14.5625 L 3.171875 -14.5625 L 3.171875 -18.8125 L 6.59375 -18.84375 L 6.59375 -14.5625 L 10.953125 -14.5625 L 10.953125 -11.609375 L 6.59375 -11.609375 L 6.59375 -5.375 C 6.59375 -4.695312 6.691406 -4.171875 6.890625 -3.796875 C 7.085938 -3.429688 7.347656 -3.179688 7.671875 -3.046875 C 8.003906 -2.910156 8.347656 -2.84375 8.703125 -2.84375 L 10.953125 -2.84375 Z M 10.953125 0 "/></g></g></g><g fill="#0097b2" fill-opacity="1"><g transform="translate(253.370051, 260.725003)"><g><path d="M 3.703125 -16.828125 C 3.035156 -16.828125 2.515625 -17.015625 2.140625 -17.390625 C 1.773438 -17.773438 1.59375 -18.242188 1.59375 -18.796875 C 1.59375 -19.316406 1.773438 -19.769531 2.140625 -20.15625 C 2.515625 -20.550781 3.035156 -20.75 3.703125 -20.75 C 4.398438 -20.75 4.929688 -20.550781 5.296875 -20.15625 C 5.671875 -19.769531 5.859375 -19.316406 5.859375 -18.796875 C 5.859375 -18.242188 5.671875 -17.773438 5.296875 -17.390625 C 4.929688 -17.015625 4.398438 -16.828125 3.703125 -16.828125 Z M 5.4375 0 L 2.015625 0 L 2.015625 -14.5625 L 5.4375 -14.5625 Z M 5.4375 0 "/></g></g></g><g fill="#0097b2" fill-opacity="1"><g transform="translate(260.802141, 260.725003)"><g><path d="M 8.625 0.4375 C 7.519531 0.4375 6.5 0.238281 5.5625 -0.15625 C 4.625 -0.550781 3.8125 -1.101562 3.125 -1.8125 C 2.445312 -2.519531 1.921875 -3.335938 1.546875 -4.265625 C 1.171875 -5.203125 0.984375 -6.207031 0.984375 -7.28125 C 0.984375 -8.34375 1.171875 -9.335938 1.546875 -10.265625 C 1.921875 -11.203125 2.445312 -12.023438 3.125 -12.734375 C 3.8125 -13.441406 4.625 -13.992188 5.5625 -14.390625 C 6.5 -14.796875 7.523438 -15 8.640625 -15 C 9.765625 -15 10.789062 -14.796875 11.71875 -14.390625 C 12.65625 -13.992188 13.46875 -13.441406 14.15625 -12.734375 C 14.84375 -12.023438 15.375 -11.203125 15.75 -10.265625 C 16.132812 -9.335938 16.328125 -8.34375 16.328125 -7.28125 C 16.328125 -6.207031 16.132812 -5.203125 15.75 -4.265625 C 15.375 -3.335938 14.84375 -2.519531 14.15625 -1.8125 C 13.46875 -1.101562 12.65625 -0.550781 11.71875 -0.15625 C 10.78125 0.238281 9.75 0.4375 8.625 0.4375 Z M 8.65625 -2.75 C 9.476562 -2.75 10.207031 -2.941406 10.84375 -3.328125 C 11.488281 -3.722656 11.992188 -4.257812 12.359375 -4.9375 C 12.734375 -5.625 12.921875 -6.40625 12.921875 -7.28125 C 12.921875 -8.15625 12.734375 -8.9375 12.359375 -9.625 C 11.992188 -10.3125 11.488281 -10.847656 10.84375 -11.234375 C 10.207031 -11.628906 9.476562 -11.828125 8.65625 -11.828125 C 7.84375 -11.828125 7.113281 -11.628906 6.46875 -11.234375 C 5.820312 -10.847656 5.3125 -10.3125 4.9375 -9.625 C 4.5625 -8.9375 4.375 -8.15625 4.375 -7.28125 C 4.375 -6.40625 4.5625 -5.625 4.9375 -4.9375 C 5.3125 -4.257812 5.820312 -3.722656 6.46875 -3.328125 C 7.113281 -2.941406 7.84375 -2.75 8.65625 -2.75 Z M 8.65625 -2.75 "/></g></g></g><g fill="#0097b2" fill-opacity="1"><g transform="translate(278.101167, 260.725003)"><g><path d="M 5.4375 0 L 2.015625 0 L 2.015625 -14.5625 L 5.265625 -14.5625 L 5.265625 -12.296875 C 5.546875 -12.816406 5.929688 -13.28125 6.421875 -13.6875 C 6.921875 -14.09375 7.492188 -14.410156 8.140625 -14.640625 C 8.796875 -14.878906 9.492188 -15 10.234375 -15 C 12.191406 -15 13.65625 -14.375 14.625 -13.125 C 15.601562 -11.882812 16.09375 -10.125 16.09375 -7.84375 L 16.09375 0 L 12.65625 0 L 12.65625 -7.78125 C 12.65625 -9.21875 12.351562 -10.253906 11.75 -10.890625 C 11.144531 -11.523438 10.328125 -11.84375 9.296875 -11.84375 C 8.617188 -11.84375 7.988281 -11.671875 7.40625 -11.328125 C 6.820312 -10.984375 6.347656 -10.484375 5.984375 -9.828125 C 5.617188 -9.179688 5.4375 -8.382812 5.4375 -7.4375 Z M 5.4375 0 "/></g></g></g><g fill="#0097b2" fill-opacity="1"><g transform="translate(296.079743, 260.725003)"><g><path d="M 7.25 0.4375 C 6.1875 0.4375 5.257812 0.296875 4.46875 0.015625 C 3.675781 -0.265625 3.019531 -0.644531 2.5 -1.125 C 1.988281 -1.613281 1.609375 -2.160156 1.359375 -2.765625 C 1.109375 -3.367188 0.984375 -3.988281 0.984375 -4.625 L 4.28125 -4.609375 C 4.300781 -3.953125 4.5625 -3.398438 5.0625 -2.953125 C 5.5625 -2.503906 6.300781 -2.28125 7.28125 -2.28125 C 8.164062 -2.28125 8.816406 -2.445312 9.234375 -2.78125 C 9.660156 -3.125 9.875 -3.570312 9.875 -4.125 C 9.875 -4.539062 9.753906 -4.863281 9.515625 -5.09375 C 9.273438 -5.332031 8.925781 -5.519531 8.46875 -5.65625 C 8.007812 -5.789062 7.453125 -5.90625 6.796875 -6 C 6.097656 -6.09375 5.429688 -6.238281 4.796875 -6.4375 C 4.171875 -6.632812 3.617188 -6.90625 3.140625 -7.25 C 2.660156 -7.601562 2.28125 -8.046875 2 -8.578125 C 1.726562 -9.109375 1.59375 -9.75 1.59375 -10.5 C 1.59375 -11.40625 1.800781 -12.191406 2.21875 -12.859375 C 2.632812 -13.523438 3.25 -14.046875 4.0625 -14.421875 C 4.882812 -14.804688 5.882812 -15 7.0625 -15 C 8.238281 -15 9.265625 -14.800781 10.140625 -14.40625 C 11.023438 -14.019531 11.710938 -13.472656 12.203125 -12.765625 C 12.691406 -12.054688 12.9375 -11.242188 12.9375 -10.328125 L 9.59375 -10.34375 C 9.550781 -10.882812 9.316406 -11.328125 8.890625 -11.671875 C 8.472656 -12.015625 7.867188 -12.1875 7.078125 -12.1875 C 6.335938 -12.1875 5.796875 -12.03125 5.453125 -11.71875 C 5.117188 -11.40625 4.953125 -11.023438 4.953125 -10.578125 C 4.953125 -10.222656 5.03125 -9.929688 5.1875 -9.703125 C 5.351562 -9.484375 5.65625 -9.300781 6.09375 -9.15625 C 6.53125 -9.007812 7.164062 -8.867188 8 -8.734375 C 8.757812 -8.617188 9.460938 -8.46875 10.109375 -8.28125 C 10.765625 -8.09375 11.332031 -7.835938 11.8125 -7.515625 C 12.300781 -7.191406 12.679688 -6.769531 12.953125 -6.25 C 13.234375 -5.738281 13.375 -5.09375 13.375 -4.3125 C 13.375 -3.25 13.101562 -2.363281 12.5625 -1.65625 C 12.03125 -0.957031 11.300781 -0.429688 10.375 -0.078125 C 9.457031 0.265625 8.414062 0.4375 7.25 0.4375 Z M 7.25 0.4375 "/></g></g></g><g fill="#000000" fill-opacity="1"><g transform="translate(68.543042, 285.474941)"><g><path d="M 6.46875 -10.40625 C 5.207031 -10.40625 4.210938 -9.984375 3.484375 -9.140625 C 2.765625 -8.304688 2.40625 -7.164062 2.40625 -5.71875 C 2.40625 -4.21875 2.753906 -3.0625 3.453125 -2.25 C 4.148438 -1.4375 5.148438 -1.03125 6.453125 -1.03125 C 7.242188 -1.03125 8.148438 -1.171875 9.171875 -1.453125 L 9.171875 -0.296875 C 8.378906 0.00390625 7.40625 0.15625 6.25 0.15625 C 4.5625 0.15625 3.257812 -0.351562 2.34375 -1.375 C 1.4375 -2.394531 0.984375 -3.847656 0.984375 -5.734375 C 0.984375 -6.910156 1.203125 -7.941406 1.640625 -8.828125 C 2.078125 -9.710938 2.710938 -10.394531 3.546875 -10.875 C 4.378906 -11.351562 5.359375 -11.59375 6.484375 -11.59375 C 7.679688 -11.59375 8.726562 -11.375 9.625 -10.9375 L 9.0625 -9.796875 C 8.195312 -10.203125 7.332031 -10.40625 6.46875 -10.40625 Z M 6.46875 -10.40625 "/></g></g></g><g fill="#000000" fill-opacity="1"><g transform="translate(81.306339, 285.474941)"><g><path d="M 8.765625 -4.296875 C 8.765625 -2.898438 8.410156 -1.804688 7.703125 -1.015625 C 7.003906 -0.234375 6.035156 0.15625 4.796875 0.15625 C 4.035156 0.15625 3.359375 -0.0195312 2.765625 -0.375 C 2.171875 -0.738281 1.710938 -1.253906 1.390625 -1.921875 C 1.066406 -2.597656 0.90625 -3.390625 0.90625 -4.296875 C 0.90625 -5.691406 1.253906 -6.773438 1.953125 -7.546875 C 2.648438 -8.328125 3.617188 -8.71875 4.859375 -8.71875 C 6.054688 -8.71875 7.003906 -8.316406 7.703125 -7.515625 C 8.410156 -6.722656 8.765625 -5.648438 8.765625 -4.296875 Z M 2.25 -4.296875 C 2.25 -3.203125 2.46875 -2.367188 2.90625 -1.796875 C 3.34375 -1.222656 3.984375 -0.9375 4.828125 -0.9375 C 5.679688 -0.9375 6.328125 -1.21875 6.765625 -1.78125 C 7.203125 -2.351562 7.421875 -3.191406 7.421875 -4.296875 C 7.421875 -5.378906 7.203125 -6.203125 6.765625 -6.765625 C 6.328125 -7.335938 5.675781 -7.625 4.8125 -7.625 C 3.96875 -7.625 3.328125 -7.34375 2.890625 -6.78125 C 2.460938 -6.226562 2.25 -5.398438 2.25 -4.296875 Z M 2.25 -4.296875 "/></g></g></g><g fill="#000000" fill-opacity="1"><g transform="translate(93.640059, 285.474941)"><g><path d="M 7.234375 0 L 7.234375 -5.546875 C 7.234375 -6.242188 7.070312 -6.765625 6.75 -7.109375 C 6.4375 -7.453125 5.941406 -7.625 5.265625 -7.625 C 4.367188 -7.625 3.710938 -7.378906 3.296875 -6.890625 C 2.878906 -6.410156 2.671875 -5.613281 2.671875 -4.5 L 2.671875 0 L 1.375 0 L 1.375 -8.5625 L 2.4375 -8.5625 L 2.640625 -7.390625 L 2.703125 -7.390625 C 2.972656 -7.816406 3.347656 -8.144531 3.828125 -8.375 C 4.304688 -8.601562 4.835938 -8.71875 5.421875 -8.71875 C 6.453125 -8.71875 7.226562 -8.46875 7.75 -7.96875 C 8.269531 -7.476562 8.53125 -6.6875 8.53125 -5.59375 L 8.53125 0 Z M 7.234375 0 "/></g></g></g><g fill="#000000" fill-opacity="1"><g transform="translate(106.129992, 285.474941)"><g><path d="M 6.90625 -2.34375 C 6.90625 -1.539062 6.609375 -0.921875 6.015625 -0.484375 C 5.421875 -0.0546875 4.585938 0.15625 3.515625 0.15625 C 2.378906 0.15625 1.492188 -0.0234375 0.859375 -0.390625 L 0.859375 -1.59375 C 1.265625 -1.382812 1.703125 -1.21875 2.171875 -1.09375 C 2.648438 -0.976562 3.109375 -0.921875 3.546875 -0.921875 C 4.222656 -0.921875 4.742188 -1.023438 5.109375 -1.234375 C 5.472656 -1.453125 5.65625 -1.785156 5.65625 -2.234375 C 5.65625 -2.566406 5.507812 -2.847656 5.21875 -3.078125 C 4.925781 -3.316406 4.363281 -3.597656 3.53125 -3.921875 C 2.726562 -4.222656 2.160156 -4.484375 1.828125 -4.703125 C 1.492188 -4.921875 1.242188 -5.171875 1.078125 -5.453125 C 0.910156 -5.734375 0.828125 -6.070312 0.828125 -6.46875 C 0.828125 -7.164062 1.109375 -7.710938 1.671875 -8.109375 C 2.242188 -8.515625 3.023438 -8.71875 4.015625 -8.71875 C 4.941406 -8.71875 5.84375 -8.53125 6.71875 -8.15625 L 6.265625 -7.109375 C 5.398438 -7.460938 4.617188 -7.640625 3.921875 -7.640625 C 3.304688 -7.640625 2.84375 -7.539062 2.53125 -7.34375 C 2.21875 -7.15625 2.0625 -6.890625 2.0625 -6.546875 C 2.0625 -6.316406 2.117188 -6.117188 2.234375 -5.953125 C 2.359375 -5.796875 2.550781 -5.644531 2.8125 -5.5 C 3.070312 -5.351562 3.570312 -5.144531 4.3125 -4.875 C 5.320312 -4.5 6.003906 -4.125 6.359375 -3.75 C 6.722656 -3.375 6.90625 -2.90625 6.90625 -2.34375 Z M 6.90625 -2.34375 "/></g></g></g><g fill="#000000" fill-opacity="1"><g transform="translate(116.432958, 285.474941)"><g><path d="M 2.59375 -8.5625 L 2.59375 -3.015625 C 2.59375 -2.316406 2.75 -1.796875 3.0625 -1.453125 C 3.382812 -1.109375 3.882812 -0.9375 4.5625 -0.9375 C 5.457031 -0.9375 6.113281 -1.179688 6.53125 -1.671875 C 6.945312 -2.160156 7.15625 -2.957031 7.15625 -4.0625 L 7.15625 -8.5625 L 8.453125 -8.5625 L 8.453125 0 L 7.375 0 L 7.1875 -1.15625 L 7.125 -1.15625 C 6.851562 -0.726562 6.484375 -0.398438 6.015625 -0.171875 C 5.546875 0.046875 5.007812 0.15625 4.40625 0.15625 C 3.363281 0.15625 2.582031 -0.0859375 2.0625 -0.578125 C 1.539062 -1.078125 1.28125 -1.875 1.28125 -2.96875 L 1.28125 -8.5625 Z M 2.59375 -8.5625 "/></g></g></g><g fill="#000000" fill-opacity="1"><g transform="translate(128.92289, 285.474941)"><g><path d="M 2.671875 0 L 1.375 0 L 1.375 -12.15625 L 2.671875 -12.15625 Z M 2.671875 0 "/></g></g></g><g fill="#000000" fill-opacity="1"><g transform="translate(135.640789, 285.474941)"><g><path d="M 4.140625 -0.921875 C 4.367188 -0.921875 4.585938 -0.9375 4.796875 -0.96875 C 5.015625 -1 5.1875 -1.035156 5.3125 -1.078125 L 5.3125 -0.078125 C 5.175781 -0.00390625 4.96875 0.0507812 4.6875 0.09375 C 4.414062 0.132812 4.171875 0.15625 3.953125 0.15625 C 2.296875 0.15625 1.46875 -0.71875 1.46875 -2.46875 L 1.46875 -7.5625 L 0.25 -7.5625 L 0.25 -8.1875 L 1.46875 -8.71875 L 2.015625 -10.546875 L 2.765625 -10.546875 L 2.765625 -8.5625 L 5.25 -8.5625 L 5.25 -7.5625 L 2.765625 -7.5625 L 2.765625 -2.515625 C 2.765625 -2.003906 2.882812 -1.609375 3.125 -1.328125 C 3.375 -1.054688 3.710938 -0.921875 4.140625 -0.921875 Z M 4.140625 -0.921875 "/></g></g></g><g fill="#000000" fill-opacity="1"><g transform="translate(143.959865, 285.474941)"><g><path d="M 8.765625 -4.296875 C 8.765625 -2.898438 8.410156 -1.804688 7.703125 -1.015625 C 7.003906 -0.234375 6.035156 0.15625 4.796875 0.15625 C 4.035156 0.15625 3.359375 -0.0195312 2.765625 -0.375 C 2.171875 -0.738281 1.710938 -1.253906 1.390625 -1.921875 C 1.066406 -2.597656 0.90625 -3.390625 0.90625 -4.296875 C 0.90625 -5.691406 1.253906 -6.773438 1.953125 -7.546875 C 2.648438 -8.328125 3.617188 -8.71875 4.859375 -8.71875 C 6.054688 -8.71875 7.003906 -8.316406 7.703125 -7.515625 C 8.410156 -6.722656 8.765625 -5.648438 8.765625 -4.296875 Z M 2.25 -4.296875 C 2.25 -3.203125 2.46875 -2.367188 2.90625 -1.796875 C 3.34375 -1.222656 3.984375 -0.9375 4.828125 -0.9375 C 5.679688 -0.9375 6.328125 -1.21875 6.765625 -1.78125 C 7.203125 -2.351562 7.421875 -3.191406 7.421875 -4.296875 C 7.421875 -5.378906 7.203125 -6.203125 6.765625 -6.765625 C 6.328125 -7.335938 5.675781 -7.625 4.8125 -7.625 C 3.96875 -7.625 3.328125 -7.34375 2.890625 -6.78125 C 2.460938 -6.226562 2.25 -5.398438 2.25 -4.296875 Z M 2.25 -4.296875 "/></g></g></g><g fill="#000000" fill-opacity="1"><g transform="translate(156.293585, 285.474941)"><g><path d="M 5.28125 -8.71875 C 5.664062 -8.71875 6.007812 -8.6875 6.3125 -8.625 L 6.125 -7.421875 C 5.769531 -7.503906 5.457031 -7.546875 5.1875 -7.546875 C 4.5 -7.546875 3.90625 -7.265625 3.40625 -6.703125 C 2.914062 -6.140625 2.671875 -5.4375 2.671875 -4.59375 L 2.671875 0 L 1.375 0 L 1.375 -8.5625 L 2.453125 -8.5625 L 2.59375 -6.984375 L 2.65625 -6.984375 C 2.976562 -7.535156 3.363281 -7.960938 3.8125 -8.265625 C 4.257812 -8.566406 4.75 -8.71875 5.28125 -8.71875 Z M 5.28125 -8.71875 "/></g></g></g><g fill="#000000" fill-opacity="1"><g transform="translate(165.495253, 285.474941)"><g><path d="M 2.671875 0 L 1.375 0 L 1.375 -8.5625 L 2.671875 -8.5625 Z M 1.265625 -10.890625 C 1.265625 -11.179688 1.335938 -11.394531 1.484375 -11.53125 C 1.628906 -11.675781 1.8125 -11.75 2.03125 -11.75 C 2.238281 -11.75 2.414062 -11.675781 2.5625 -11.53125 C 2.71875 -11.394531 2.796875 -11.179688 2.796875 -10.890625 C 2.796875 -10.597656 2.71875 -10.378906 2.5625 -10.234375 C 2.414062 -10.085938 2.238281 -10.015625 2.03125 -10.015625 C 1.8125 -10.015625 1.628906 -10.085938 1.484375 -10.234375 C 1.335938 -10.378906 1.265625 -10.597656 1.265625 -10.890625 Z M 1.265625 -10.890625 "/></g></g></g><g fill="#000000" fill-opacity="1"><g transform="translate(172.213151, 285.474941)"><g><path d="M 6.640625 0 L 6.390625 -1.21875 L 6.328125 -1.21875 C 5.898438 -0.6875 5.472656 -0.320312 5.046875 -0.125 C 4.617188 0.0625 4.085938 0.15625 3.453125 0.15625 C 2.609375 0.15625 1.941406 -0.0625 1.453125 -0.5 C 0.972656 -0.9375 0.734375 -1.5625 0.734375 -2.375 C 0.734375 -4.101562 2.117188 -5.007812 4.890625 -5.09375 L 6.34375 -5.140625 L 6.34375 -5.671875 C 6.34375 -6.335938 6.195312 -6.832031 5.90625 -7.15625 C 5.613281 -7.476562 5.148438 -7.640625 4.515625 -7.640625 C 3.804688 -7.640625 3 -7.421875 2.09375 -6.984375 L 1.703125 -7.96875 C 2.117188 -8.195312 2.578125 -8.375 3.078125 -8.5 C 3.585938 -8.632812 4.09375 -8.703125 4.59375 -8.703125 C 5.613281 -8.703125 6.367188 -8.472656 6.859375 -8.015625 C 7.359375 -7.566406 7.609375 -6.84375 7.609375 -5.84375 L 7.609375 0 Z M 3.71875 -0.921875 C 4.519531 -0.921875 5.148438 -1.140625 5.609375 -1.578125 C 6.078125 -2.023438 6.3125 -2.644531 6.3125 -3.4375 L 6.3125 -4.21875 L 5.015625 -4.15625 C 3.984375 -4.125 3.238281 -3.960938 2.78125 -3.671875 C 2.320312 -3.390625 2.09375 -2.953125 2.09375 -2.359375 C 2.09375 -1.890625 2.234375 -1.53125 2.515625 -1.28125 C 2.804688 -1.039062 3.207031 -0.921875 3.71875 -0.921875 Z M 3.71875 -0.921875 "/></g></g></g><g fill="#000000" fill-opacity="1"><g transform="translate(183.781434, 285.474941)"><g/></g></g><g fill="#000000" fill-opacity="1"><g transform="translate(190.608681, 285.474941)"><g><path d="M 7.9375 0 L 1.578125 0 L 1.578125 -11.421875 L 7.9375 -11.421875 L 7.9375 -10.25 L 2.90625 -10.25 L 2.90625 -6.5625 L 7.640625 -6.5625 L 7.640625 -5.390625 L 2.90625 -5.390625 L 2.90625 -1.1875 L 7.9375 -1.1875 Z M 7.9375 0 "/></g></g></g><g fill="#000000" fill-opacity="1"><g transform="translate(202.176963, 285.474941)"><g><path d="M 12.296875 0 L 12.296875 -5.578125 C 12.296875 -6.253906 12.148438 -6.765625 11.859375 -7.109375 C 11.566406 -7.453125 11.113281 -7.625 10.5 -7.625 C 9.6875 -7.625 9.085938 -7.390625 8.703125 -6.921875 C 8.316406 -6.460938 8.125 -5.75 8.125 -4.78125 L 8.125 0 L 6.828125 0 L 6.828125 -5.578125 C 6.828125 -6.253906 6.679688 -6.765625 6.390625 -7.109375 C 6.097656 -7.453125 5.644531 -7.625 5.03125 -7.625 C 4.21875 -7.625 3.617188 -7.378906 3.234375 -6.890625 C 2.859375 -6.398438 2.671875 -5.601562 2.671875 -4.5 L 2.671875 0 L 1.375 0 L 1.375 -8.5625 L 2.4375 -8.5625 L 2.640625 -7.390625 L 2.703125 -7.390625 C 2.953125 -7.804688 3.296875 -8.128906 3.734375 -8.359375 C 4.179688 -8.597656 4.679688 -8.71875 5.234375 -8.71875 C 6.578125 -8.71875 7.453125 -8.234375 7.859375 -7.265625 L 7.921875 -7.265625 C 8.179688 -7.710938 8.550781 -8.066406 9.03125 -8.328125 C 9.519531 -8.585938 10.070312 -8.71875 10.6875 -8.71875 C 11.65625 -8.71875 12.378906 -8.46875 12.859375 -7.96875 C 13.347656 -7.476562 13.59375 -6.6875 13.59375 -5.59375 L 13.59375 0 Z M 12.296875 0 "/></g></g></g><g fill="#000000" fill-opacity="1"><g transform="translate(219.728159, 285.474941)"><g><path d="M 5.359375 0.15625 C 4.804688 0.15625 4.296875 0.0507812 3.828125 -0.15625 C 3.367188 -0.363281 2.984375 -0.679688 2.671875 -1.109375 L 2.578125 -1.109375 C 2.640625 -0.609375 2.671875 -0.128906 2.671875 0.328125 L 2.671875 3.84375 L 1.375 3.84375 L 1.375 -8.5625 L 2.4375 -8.5625 L 2.609375 -7.390625 L 2.671875 -7.390625 C 3.003906 -7.859375 3.390625 -8.195312 3.828125 -8.40625 C 4.273438 -8.613281 4.785156 -8.71875 5.359375 -8.71875 C 6.492188 -8.71875 7.367188 -8.328125 7.984375 -7.546875 C 8.609375 -6.773438 8.921875 -5.691406 8.921875 -4.296875 C 8.921875 -2.890625 8.601562 -1.796875 7.96875 -1.015625 C 7.34375 -0.234375 6.472656 0.15625 5.359375 0.15625 Z M 5.171875 -7.625 C 4.296875 -7.625 3.660156 -7.378906 3.265625 -6.890625 C 2.878906 -6.410156 2.679688 -5.640625 2.671875 -4.578125 L 2.671875 -4.296875 C 2.671875 -3.085938 2.867188 -2.222656 3.265625 -1.703125 C 3.671875 -1.191406 4.316406 -0.9375 5.203125 -0.9375 C 5.941406 -0.9375 6.519531 -1.234375 6.9375 -1.828125 C 7.363281 -2.429688 7.578125 -3.257812 7.578125 -4.3125 C 7.578125 -5.375 7.363281 -6.191406 6.9375 -6.765625 C 6.519531 -7.335938 5.929688 -7.625 5.171875 -7.625 Z M 5.171875 -7.625 "/></g></g></g><g fill="#000000" fill-opacity="1"><g transform="translate(232.20247, 285.474941)"><g><path d="M 5.28125 -8.71875 C 5.664062 -8.71875 6.007812 -8.6875 6.3125 -8.625 L 6.125 -7.421875 C 5.769531 -7.503906 5.457031 -7.546875 5.1875 -7.546875 C 4.5 -7.546875 3.90625 -7.265625 3.40625 -6.703125 C 2.914062 -6.140625 2.671875 -5.4375 2.671875 -4.59375 L 2.671875 0 L 1.375 0 L 1.375 -8.5625 L 2.453125 -8.5625 L 2.59375 -6.984375 L 2.65625 -6.984375 C 2.976562 -7.535156 3.363281 -7.960938 3.8125 -8.265625 C 4.257812 -8.566406 4.75 -8.71875 5.28125 -8.71875 Z M 5.28125 -8.71875 "/></g></g></g><g fill="#000000" fill-opacity="1"><g transform="translate(241.404137, 285.474941)"><g><path d="M 5 0.15625 C 3.726562 0.15625 2.726562 -0.226562 2 -1 C 1.269531 -1.769531 0.90625 -2.84375 0.90625 -4.21875 C 0.90625 -5.59375 1.242188 -6.6875 1.921875 -7.5 C 2.597656 -8.3125 3.507812 -8.71875 4.65625 -8.71875 C 5.726562 -8.71875 6.578125 -8.363281 7.203125 -7.65625 C 7.828125 -6.957031 8.140625 -6.03125 8.140625 -4.875 L 8.140625 -4.046875 L 2.25 -4.046875 C 2.269531 -3.046875 2.519531 -2.285156 3 -1.765625 C 3.488281 -1.242188 4.171875 -0.984375 5.046875 -0.984375 C 5.960938 -0.984375 6.875 -1.175781 7.78125 -1.5625 L 7.78125 -0.40625 C 7.320312 -0.207031 6.882812 -0.0664062 6.46875 0.015625 C 6.0625 0.109375 5.570312 0.15625 5 0.15625 Z M 4.640625 -7.640625 C 3.953125 -7.640625 3.40625 -7.414062 3 -6.96875 C 2.59375 -6.519531 2.351562 -5.898438 2.28125 -5.109375 L 6.75 -5.109375 C 6.75 -5.921875 6.566406 -6.546875 6.203125 -6.984375 C 5.835938 -7.421875 5.316406 -7.640625 4.640625 -7.640625 Z M 4.640625 -7.640625 "/></g></g></g><g fill="#000000" fill-opacity="1"><g transform="translate(253.050525, 285.474941)"><g><path d="M 6.90625 -2.34375 C 6.90625 -1.539062 6.609375 -0.921875 6.015625 -0.484375 C 5.421875 -0.0546875 4.585938 0.15625 3.515625 0.15625 C 2.378906 0.15625 1.492188 -0.0234375 0.859375 -0.390625 L 0.859375 -1.59375 C 1.265625 -1.382812 1.703125 -1.21875 2.171875 -1.09375 C 2.648438 -0.976562 3.109375 -0.921875 3.546875 -0.921875 C 4.222656 -0.921875 4.742188 -1.023438 5.109375 -1.234375 C 5.472656 -1.453125 5.65625 -1.785156 5.65625 -2.234375 C 5.65625 -2.566406 5.507812 -2.847656 5.21875 -3.078125 C 4.925781 -3.316406 4.363281 -3.597656 3.53125 -3.921875 C 2.726562 -4.222656 2.160156 -4.484375 1.828125 -4.703125 C 1.492188 -4.921875 1.242188 -5.171875 1.078125 -5.453125 C 0.910156 -5.734375 0.828125 -6.070312 0.828125 -6.46875 C 0.828125 -7.164062 1.109375 -7.710938 1.671875 -8.109375 C 2.242188 -8.515625 3.023438 -8.71875 4.015625 -8.71875 C 4.941406 -8.71875 5.84375 -8.53125 6.71875 -8.15625 L 6.265625 -7.109375 C 5.398438 -7.460938 4.617188 -7.640625 3.921875 -7.640625 C 3.304688 -7.640625 2.84375 -7.539062 2.53125 -7.34375 C 2.21875 -7.15625 2.0625 -6.890625 2.0625 -6.546875 C 2.0625 -6.316406 2.117188 -6.117188 2.234375 -5.953125 C 2.359375 -5.796875 2.550781 -5.644531 2.8125 -5.5 C 3.070312 -5.351562 3.570312 -5.144531 4.3125 -4.875 C 5.320312 -4.5 6.003906 -4.125 6.359375 -3.75 C 6.722656 -3.375 6.90625 -2.90625 6.90625 -2.34375 Z M 6.90625 -2.34375 "/></g></g></g><g fill="#000000" fill-opacity="1"><g transform="translate(263.353492, 285.474941)"><g><path d="M 6.640625 0 L 6.390625 -1.21875 L 6.328125 -1.21875 C 5.898438 -0.6875 5.472656 -0.320312 5.046875 -0.125 C 4.617188 0.0625 4.085938 0.15625 3.453125 0.15625 C 2.609375 0.15625 1.941406 -0.0625 1.453125 -0.5 C 0.972656 -0.9375 0.734375 -1.5625 0.734375 -2.375 C 0.734375 -4.101562 2.117188 -5.007812 4.890625 -5.09375 L 6.34375 -5.140625 L 6.34375 -5.671875 C 6.34375 -6.335938 6.195312 -6.832031 5.90625 -7.15625 C 5.613281 -7.476562 5.148438 -7.640625 4.515625 -7.640625 C 3.804688 -7.640625 3 -7.421875 2.09375 -6.984375 L 1.703125 -7.96875 C 2.117188 -8.195312 2.578125 -8.375 3.078125 -8.5 C 3.585938 -8.632812 4.09375 -8.703125 4.59375 -8.703125 C 5.613281 -8.703125 6.367188 -8.472656 6.859375 -8.015625 C 7.359375 -7.566406 7.609375 -6.84375 7.609375 -5.84375 L 7.609375 0 Z M 3.71875 -0.921875 C 4.519531 -0.921875 5.148438 -1.140625 5.609375 -1.578125 C 6.078125 -2.023438 6.3125 -2.644531 6.3125 -3.4375 L 6.3125 -4.21875 L 5.015625 -4.15625 C 3.984375 -4.125 3.238281 -3.960938 2.78125 -3.671875 C 2.320312 -3.390625 2.09375 -2.953125 2.09375 -2.359375 C 2.09375 -1.890625 2.234375 -1.53125 2.515625 -1.28125 C 2.804688 -1.039062 3.207031 -0.921875 3.71875 -0.921875 Z M 3.71875 -0.921875 "/></g></g></g><g fill="#000000" fill-opacity="1"><g transform="translate(274.921774, 285.474941)"><g><path d="M 5.28125 -8.71875 C 5.664062 -8.71875 6.007812 -8.6875 6.3125 -8.625 L 6.125 -7.421875 C 5.769531 -7.503906 5.457031 -7.546875 5.1875 -7.546875 C 4.5 -7.546875 3.90625 -7.265625 3.40625 -6.703125 C 2.914062 -6.140625 2.671875 -5.4375 2.671875 -4.59375 L 2.671875 0 L 1.375 0 L 1.375 -8.5625 L 2.453125 -8.5625 L 2.59375 -6.984375 L 2.65625 -6.984375 C 2.976562 -7.535156 3.363281 -7.960938 3.8125 -8.265625 C 4.257812 -8.566406 4.75 -8.71875 5.28125 -8.71875 Z M 5.28125 -8.71875 "/></g></g></g><g fill="#000000" fill-opacity="1"><g transform="translate(284.123441, 285.474941)"><g><path d="M 2.671875 0 L 1.375 0 L 1.375 -8.5625 L 2.671875 -8.5625 Z M 1.265625 -10.890625 C 1.265625 -11.179688 1.335938 -11.394531 1.484375 -11.53125 C 1.628906 -11.675781 1.8125 -11.75 2.03125 -11.75 C 2.238281 -11.75 2.414062 -11.675781 2.5625 -11.53125 C 2.71875 -11.394531 2.796875 -11.179688 2.796875 -10.890625 C 2.796875 -10.597656 2.71875 -10.378906 2.5625 -10.234375 C 2.414062 -10.085938 2.238281 -10.015625 2.03125 -10.015625 C 1.8125 -10.015625 1.628906 -10.085938 1.484375 -10.234375 C 1.335938 -10.378906 1.265625 -10.597656 1.265625 -10.890625 Z M 1.265625 -10.890625 "/></g></g></g><g fill="#000000" fill-opacity="1"><g transform="translate(290.841352, 285.474941)"><g><path d="M 6.640625 0 L 6.390625 -1.21875 L 6.328125 -1.21875 C 5.898438 -0.6875 5.472656 -0.320312 5.046875 -0.125 C 4.617188 0.0625 4.085938 0.15625 3.453125 0.15625 C 2.609375 0.15625 1.941406 -0.0625 1.453125 -0.5 C 0.972656 -0.9375 0.734375 -1.5625 0.734375 -2.375 C 0.734375 -4.101562 2.117188 -5.007812 4.890625 -5.09375 L 6.34375 -5.140625 L 6.34375 -5.671875 C 6.34375 -6.335938 6.195312 -6.832031 5.90625 -7.15625 C 5.613281 -7.476562 5.148438 -7.640625 4.515625 -7.640625 C 3.804688 -7.640625 3 -7.421875 2.09375 -6.984375 L 1.703125 -7.96875 C 2.117188 -8.195312 2.578125 -8.375 3.078125 -8.5 C 3.585938 -8.632812 4.09375 -8.703125 4.59375 -8.703125 C 5.613281 -8.703125 6.367188 -8.472656 6.859375 -8.015625 C 7.359375 -7.566406 7.609375 -6.84375 7.609375 -5.84375 L 7.609375 0 Z M 3.71875 -0.921875 C 4.519531 -0.921875 5.148438 -1.140625 5.609375 -1.578125 C 6.078125 -2.023438 6.3125 -2.644531 6.3125 -3.4375 L 6.3125 -4.21875 L 5.015625 -4.15625 C 3.984375 -4.125 3.238281 -3.960938 2.78125 -3.671875 C 2.320312 -3.390625 2.09375 -2.953125 2.09375 -2.359375 C 2.09375 -1.890625 2.234375 -1.53125 2.515625 -1.28125 C 2.804688 -1.039062 3.207031 -0.921875 3.71875 -0.921875 Z M 3.71875 -0.921875 "/></g></g></g><g fill="#000000" fill-opacity="1"><g transform="translate(302.409634, 285.474941)"><g><path d="M 2.671875 0 L 1.375 0 L 1.375 -12.15625 L 2.671875 -12.15625 Z M 2.671875 0 "/></g></g></g></svg>